<?xml version="1.0" encoding="UTF-8" standalone="no"?>
<!-- Created with Inkscape (http://www.inkscape.org/) -->

<svg
   width="148.89243mm"
   height="190.34903mm"
   viewBox="0 0 148.89243 190.34903"
   version="1.1"
   id="svg1"
   xml:space="preserve"
   xmlns="http://www.w3.org/2000/svg"
   xmlns:svg="http://www.w3.org/2000/svg"><defs
     id="defs1" /><g
     id="layer1"
     transform="translate(-21.003372,-60.420889)"><g
       id="g1"
       transform="matrix(0.26458333,0,0,0.26458333,-40.028101,19.396261)"><g
         id="cartoon character"><path
           id="27"
           d="m 429.628,871.978 c -10.485,-2.652 -18.911,-7.239 -25.789,-14.041 -11.224,-11.1 -17.673,-23.744 -25.726,-50.437 -2.323,-7.7 -4.624,-14.977 -5.112,-16.172 -0.872,-2.135 -1.317,-2.178 -25.694,-2.5 0,0 -24.807,-0.328 -24.807,-0.328 0,0 -5.469,-3 -5.469,-3 -8.357,-4.584 -10.048,-8.156 -20.228,-42.725 -4.891,-16.609 -9.048,-30.353 -9.238,-30.543 -0.19,-0.19 -3.353,0.058 -7.029,0.55 -16.804,2.251 -30.865,-5.271 -40.49,-21.664 -5.427,-9.242 -7.762,-17.76 -8.555,-31.207 -0.647,-10.966 -0.555,-11.753 2.346,-20.191 3.846,-11.185 8.093,-17.109 16.199,-22.595 3.774,-2.554 6.418,-5.051 6.354,-6 -0.061,-0.894 -4.478,-16.475 -9.815,-34.625 -8.388,-28.525 -9.654,-33.78 -9.326,-38.755 0.47,-7.143 4.317,-13.11 10.795,-16.745 4.407,-2.473 4.761,-2.504 32.244,-2.844 25.309,-0.313 27.742,-0.492 27.278,-2 -0.28,-0.911 -1.247,-5.931 -2.148,-11.156 -2.443,-14.171 -0.65,-30.367 5.032,-45.463 2.4,-6.376 11.68,-22.881 13.496,-24.003 0.465,-0.287 1.141,-4.237 1.502,-8.778 1.728,-21.721 7.027,-47.59 13.572,-66.256 6.261,-17.858 23.063,-48.763 27.082,-49.816 0.881,-0.231 4.247,-3.742 7.48,-7.802 11.07,-13.903 23.129,-24.638 41.418,-36.876 3.575,-2.392 6.889,-5 7.365,-5.794 1.157,-1.932 18.723,-10.249 31.135,-14.741 24.454,-8.85 49.138,-12.821 78,-12.546 10.45,0.099 20.35,0.27 22,0.378 2.844,0.187 3.267,-0.325 8.129,-9.803 2.821,-5.5 5.417,-10.945 5.769,-12.099 0.536,-1.759 -2.009,-4.473 -15.722,-16.759 -16.426,-14.717 -18.039,-16.636 -19.158,-22.803 -0.748,-4.124 2.652,-11.253 6.81,-14.28 2.788,-2.03 3.739,-2.058 67.5,-1.986 46.942,0.053 65.815,0.4 68.843,1.267 2.982,0.854 6.261,3.263 11.5,8.448 4.031,3.989 23.754,23.398 43.829,43.132 20.075,19.734 37.284,37.05 38.243,38.48 0.991,1.478 1.746,4.486 1.75,6.968 0.006,3.732 -0.549,4.923 -3.811,8.185 -2.1,2.1 -5.137,4.133 -6.75,4.52 -5.367,1.286 -5.432,1.508 -5.432,18.375 0,15.614 0.015,15.717 2.595,18.128 4.677,4.369 5.405,6.985 5.405,19.42 0,10.978 -0.131,11.725 -2.455,14.049 -2.243,2.243 -3.231,2.455 -11.477,2.455 -11.569,0 -11.691,-0.164 -12.31,-16.544 -0.507,-13.412 -0.065,-15.432 4.249,-19.462 0,0 2.993,-2.796 2.993,-2.796 0,0 0,-16.04 0,-16.04 0,-8.822 -0.338,-16.246 -0.75,-16.497 -0.412,-0.251 -7.668,-0.615 -16.124,-0.809 -17.598,-0.403 -15.969,-1.292 -18.606,10.148 -0.951,4.125 -2.298,8.407 -2.993,9.515 -0.695,1.108 -1.59,3.583 -1.988,5.5 -0.398,1.917 -1.455,5.599 -2.348,8.183 0,0 -1.624,4.698 -1.624,4.698 0,0 3.225,4.302 3.225,4.302 1.774,2.366 4.403,6.327 5.842,8.802 1.439,2.475 3.466,5.625 4.502,7 2.091,2.774 10.497,19.765 14.213,28.729 2.881,6.95 4.875,13.116 7.685,23.771 1.16,4.4 2.721,9.35 3.469,11 3.062,6.756 5.671,25.936 8.98,66 3.793,45.936 6.33,62.322 14.552,94 12.756,49.149 16.951,80.893 14.996,113.457 -0.548,9.121 -1.677,20.4 -2.509,25.064 -3.264,18.289 -4.094,14.58 7.082,31.633 4.02,6.135 8.277,14.01 9.459,17.5 8.91,26.31 -14.938,50.534 -56.799,57.691 0,0 -9.69,1.657 -9.69,1.657 0,0 -0.93,3.499 -0.93,3.499 -3.386,12.743 -9.596,29.736 -14.297,39.128 -4.551,9.092 -6.829,12.323 -13.175,18.691 -13.035,13.081 -24.426,17.133 -48.262,17.163 -21.225,0.027 -33.023,-3.775 -44.655,-14.389 -7.703,-7.029 -14.149,-16.581 -17.877,-26.492 0,0 -3.236,-8.602 -3.236,-8.602 0,0 -30.321,-0.158 -30.321,-0.158 -16.677,-0.087 -31.159,-0.312 -32.183,-0.5 -1.024,-0.188 -2.217,0.333 -2.652,1.158 -0.435,0.825 -3.113,6.22 -5.951,11.988 -5.151,10.471 -7.904,14.049 -18.118,23.553 -6.88,6.402 -9.16,7.81 -17.023,10.519 -9.454,3.257 -35.014,3.764 -46.266,0.918 m 43.456,-13.506 c 4.283,-1.426 9.836,-4.158 12.339,-6.069 4.877,-3.724 12.612,-14.22 12.855,-17.444 0.081,-1.077 0.419,-1.959 0.75,-1.959 1.029,0 3.972,-6.945 3.972,-9.372 0,-1.93 -0.554,-2.325 -3.408,-2.432 -7.909,-0.297 -37.219,-6.157 -42.24,-8.445 -2.555,-1.164 -3.729,-4.069 -3.185,-7.879 0.598,-4.191 4.301,-4.491 19.528,-1.581 36.655,7.006 74.941,9.471 104.805,6.746 12.704,-1.159 13.059,-0.914 17.505,12.065 1.997,5.831 4.919,12.799 6.493,15.485 10.778,18.391 30.367,26.055 57.096,22.337 24.997,-3.477 36.237,-16.573 48.435,-56.437 6.04,-19.74 7.195,-22.249 14.024,-30.455 17.191,-20.657 29.908,-47.299 36.293,-76.032 4.119,-18.536 5.112,-28.235 5.068,-49.5 -0.061,-29.256 -3.203,-49.573 -14.923,-96.5 -8.96,-35.875 -11.135,-49.706 -13.999,-89 -3.068,-42.099 -6.157,-63.509 -12.189,-84.5 -5.242,-18.24 -14.977,-39.622 -24.586,-54 -6.698,-10.023 -5.873,-9.56 -13.014,-7.281 -4.868,1.553 -9.109,1.99 -19.703,2.03 -12.534,0.047 -14.252,-0.184 -24,-3.231 -11.376,-3.555 -22.735,-6.684 -27.497,-7.574 -4.712,-0.881 -21.127,-9.283 -31.003,-15.869 -18.194,-12.134 -31.5,-29.08 -31.5,-40.116 0,0 0,-4.272 0,-4.272 0,0 -9.75,-0.748 -9.75,-0.748 -12.739,-0.977 -38.354,0.927 -53.927,4.009 -65.353,12.932 -114.393,54.924 -135.61,116.117 -6.161,17.77 -10.566,39.917 -12.264,61.659 -0.636,8.141 -0.98,9.176 -5.156,15.5 -15.615,23.646 -19.709,45.763 -12.779,69.026 0,0 1.563,5.25 1.563,5.25 0,0 50.853,0 50.853,0 0,0 50.852,0 50.852,0 0,0 4.518,3.25 4.518,3.25 4.086,2.939 10.941,8.662 44.456,37.121 6.608,5.611 10.971,10.124 11.872,12.28 0.783,1.874 6.382,20.365 12.442,41.09 6.06,20.725 11.261,37.924 11.556,38.219 0.673,0.673 -3.361,6.205 43.598,-59.777 36.677,-51.534 40.502,-56.557 45.049,-59.154 9.628,-5.499 18.715,-4.828 28.973,2.138 13.766,9.348 18.005,15.262 18.161,25.333 0.086,5.516 -0.29,6.603 -4.657,13.474 -2.612,4.111 -4.75,7.8 -4.75,8.198 0,0.398 -6.3,9.707 -14,20.687 -7.7,10.98 -14,20.49 -14,21.132 0,1.554 4.449,0.574 14,-3.084 9.592,-3.674 15.865,-7.943 24.692,-16.805 7.318,-7.347 9.308,-8.19 13.085,-5.545 3.435,2.406 2.969,7.36 -1.157,12.299 -10.228,12.243 -26.689,22.327 -42.62,26.111 -6.845,1.626 -11.937,2.02 -26.145,2.026 -14.836,0.006 -18.68,0.327 -24.153,2.017 -19.377,5.985 -27.242,27.978 -17.161,47.99 3.148,6.249 15.8,18.149 21.459,20.183 2.475,0.89 8.775,2.788 14,4.217 37.987,10.391 80.248,0.45 108.503,-25.52 2.201,-2.023 4.677,-3.778 5.5,-3.898 4.963,-0.726 7.997,1.599 7.997,6.127 0,7.211 -25.515,25.526 -45.867,32.924 -16.894,6.141 -24.595,7.381 -46.133,7.426 -20.377,0.043 -25.704,-0.691 -39.434,-5.43 -6.97,-2.406 -17.556,-8.068 -22.71,-12.146 C 549.852,709.297 547.803,708 547.302,708 545.969,708 533,726.813 533,728.747 c 0,0.904 2.301,9.244 5.114,18.534 4.29,14.168 5.046,17.831 4.692,22.724 -0.553,7.649 -4.165,12.999 -11.115,16.462 0,0 -5.084,2.533 -5.084,2.533 0,0 -69.803,0 -69.803,0 -38.392,0 -69.804,0.249 -69.804,0.554 0,0.305 1.122,4.544 2.493,9.421 4.529,16.109 8.733,26.485 16.824,41.525 5.571,10.355 18.871,18.519 33.523,20.578 10.032,1.41 24.619,0.266 33.244,-2.606 m 276.542,-81.573 c 19.301,-6.812 31.291,-18.112 31.352,-29.547 0.026,-4.876 -7.299,-20.425 -11.465,-24.339 -3.545,-3.331 -5.393,-1.983 -8.361,6.096 -1.291,3.515 -3.477,9.449 -4.856,13.186 -1.379,3.737 -4.346,9.587 -6.594,13 -2.248,3.413 -6.664,10.103 -9.814,14.868 -3.15,4.765 -5.465,8.927 -5.142,9.25 1.31,1.31 6.56,0.422 14.88,-2.514 m -223.643,-2.185 c 4.81,-2.434 4.756,-5.117 -0.455,-22.517 0,0 -4.791,-15.995 -4.791,-15.995 0,0 -6.118,2.76 -6.118,2.76 -7.881,3.556 -13.057,5.918 -24.007,10.952 -4.889,2.247 -9.666,4.086 -10.616,4.086 -0.95,0 -2.912,-0.933 -4.361,-2.073 -3.503,-2.755 -3.456,-5.643 0.563,-34.239 0,0 3.206,-22.811 3.206,-22.811 0,0 10.168,-14.648 10.168,-14.648 0,0 10.167,-14.647 10.167,-14.647 0,0 -1.758,-6.041 -1.758,-6.041 -11.787,-40.488 -23.273,-79.205 -23.703,-79.9 -0.299,-0.484 -7.285,-0.555 -15.72,-0.16 -11.186,0.524 -16.3,0.377 -19.429,-0.561 -5.627,-1.686 -12.486,-7.86 -14.612,-13.154 -1.334,-3.32 -6.46,-29.33 -6.507,-33.016 -0.005,-0.412 -36.584,-0.75 -81.287,-0.75 -88.131,0 -84.7,-0.213 -86.095,5.345 -0.386,1.538 3.067,15.01 9.671,37.735 0,0 10.271,35.344 10.271,35.344 0,0 6.138,1.242 6.138,1.242 8.339,1.688 12.463,3.544 17.85,8.032 6.422,5.35 12.088,13.02 14.879,20.142 9.093,23.203 6.748,46.988 -6.028,61.13 -4.136,4.578 -4.975,-0.371 6.769,39.923 4.391,15.066 8.51,28.284 9.153,29.374 0.643,1.09 2.969,2.815 5.169,3.835 3.808,1.765 8.674,1.854 101.5,1.861 76.297,0.006 98.04,-0.266 99.983,-1.249 m -17.591,-47.72 c 8.151,-3.766 8.603,-4.135 7.525,-6.149 C 512.89,715.188 497.516,704 492.77,704 c -1.082,0 -1.744,2.395 -2.61,9.442 -0.638,5.193 -1.16,9.893 -1.16,10.445 0,1.156 7.948,7.001 9.61,7.068 0.611,0.025 5.013,-1.758 9.782,-3.961 m 20.602,-14.744 c 3.695,-4.734 9.006,-14.407 9.006,-16.403 0,-1.051 -0.654,-2.161 -1.452,-2.467 -2.581,-0.99 -3.904,-7.603 -3.977,-19.88 -0.134,-22.586 6.179,-36.148 20.439,-43.909 7.641,-4.159 14.224,-5.566 26.098,-5.579 0,0 10.609,-0.012 10.609,-0.012 0,0 3.891,-5.569 3.891,-5.569 2.14,-3.063 5.355,-7.671 7.142,-10.239 1.787,-2.568 3.25,-5.649 3.25,-6.847 0,-2.263 -5.677,-7.462 -10.106,-9.254 -1.317,-0.533 -5.531,-3.436 -9.366,-6.452 -3.835,-3.016 -7.286,-5.288 -7.671,-5.05 -0.385,0.238 -5.536,7.289 -11.447,15.671 -5.911,8.382 -13.055,17.94 -15.876,21.24 -5.318,6.221 -6.133,7.329 -12.141,16.5 -1.982,3.025 -4.85,6.85 -6.375,8.5 -1.525,1.65 -5.752,7.5 -9.395,13 -3.643,5.5 -7.775,11.35 -9.183,13 -1.408,1.65 -3.771,4.943 -5.25,7.318 -1.479,2.375 -4.141,6.301 -5.915,8.725 -1.774,2.424 -3.502,5.515 -3.841,6.866 -0.536,2.135 -0.047,2.746 3.724,4.656 5.483,2.777 18.842,11.941 18.842,12.925 0,1.451 4.17,6.01 5.497,6.01 0.743,0 2.316,-1.237 3.497,-2.75 M 281.655,698.51 c 8.099,-2.405 13.054,-6.667 16.656,-14.327 2.865,-6.092 3.144,-7.567 3.153,-16.683 0.012,-11.889 -2.407,-20.193 -8.574,-29.427 -5.703,-8.54 -12.179,-12.447 -21.399,-12.913 -4.663,-0.235 -8.261,0.137 -10.536,1.09 -11.954,5.008 -17.795,18.258 -15.822,35.891 2.04,18.232 11.275,32.687 23.287,36.448 5.421,1.697 7.292,1.686 13.235,-0.079 M 614.932,587.096 c 1.137,-1.597 2.068,-3.118 2.068,-3.378 0,-0.26 -6.154,-5.094 -13.677,-10.742 0,0 -13.678,-10.269 -13.678,-10.269 0,0 -2.333,2.897 -2.333,2.897 -1.283,1.593 -2.215,3.463 -2.072,4.155 0.302,1.46 24.678,20.049 26.442,20.164 0.65,0.042 2.113,-1.23 3.25,-2.827 m 12.357,-15.346 c 3.443,-2.576 6.711,-8.173 6.711,-11.494 0,-4.327 -2.334,-8.795 -5.46,-10.45 -1.357,-0.718 -4.939,-3.054 -7.96,-5.192 -5.84,-4.132 -11.019,-5.054 -15.353,-2.735 -2.832,1.516 -8.52,9.838 -7.667,11.218 0.367,0.594 4.329,3.787 8.804,7.095 4.475,3.308 9.547,7.543 11.271,9.411 3.31,3.587 6.717,4.344 9.654,2.147 m -167.417,-7.432 c -2.082,-2.553 -26.139,-22.384 -26.597,-21.926 -0.663,0.663 1.67,12.805 3.334,17.354 0.854,2.335 2.304,4.683 3.222,5.219 0.918,0.536 6.111,0.988 11.541,1.005 9.13,0.028 9.769,-0.096 8.5,-1.652 M 684.356,302.547 c 2.87,-1.396 4.366,-3.047 5.852,-6.461 2.643,-6.074 7.893,-27.385 6.973,-28.305 -0.398,-0.398 -13.764,-1.176 -29.702,-1.729 -29.038,-1.008 -33.692,-1.603 -40.797,-5.219 -4.304,-2.19 -27.306,-22.527 -35.682,-31.547 -6.76,-7.28 -11.41,-10.769 -13.022,-9.772 -0.667,0.412 -4.084,6.765 -7.595,14.118 -9.394,19.678 -8.836,22.786 6.617,36.845 12.152,11.056 20.071,15.968 38.012,23.58 20.239,8.587 31.827,11.006 50.988,10.642 11.749,-0.223 15.232,-0.632 18.356,-2.152 m 74.539,-47.92 c 0.627,-0.755 0.887,-2.03 0.579,-2.833 -0.659,-1.717 -62.902,-62.876 -65.324,-64.187 -0.907,-0.491 -4.873,-3.985 -8.811,-7.766 -11.88,-11.405 -6.382,-10.615 -76.542,-11.001 -46.132,-0.254 -60.99,-0.047 -61.899,0.862 -1.717,1.717 0.612,4.883 8.787,11.948 3.724,3.218 9.748,8.775 13.387,12.35 3.639,3.575 10.061,9.341 14.272,12.814 4.211,3.473 7.656,6.724 7.656,7.226 0,0.502 3.095,3.511 6.878,6.686 3.783,3.175 12.44,10.881 19.24,17.123 6.8,6.242 13.717,12.049 15.372,12.905 3.634,1.879 20.709,2.749 74.01,3.77 20.35,0.39 37.188,0.881 37.417,1.092 0.229,0.211 3.436,0.384 7.127,0.384 4.47,0 7.092,-0.458 7.851,-1.373"
           stroke="#22676a"
           fill="#22676a"
           stroke-width="1" /><path
           id="3"
           d="m 601.512,714.952 c -17.668,-1.99 -35.06,-9.03 -45.199,-18.297 -5.872,-5.367 -8.861,-10.32 -10.954,-18.155 -1.515,-5.672 -1.823,-15.905 -0.454,-15.059 0.498,0.308 2.063,-1.418 3.48,-3.835 6.117,-10.437 15.056,-13.299 37.997,-12.163 18.562,0.919 25.197,-0.208 38.28,-6.503 8.211,-3.951 11.641,-6.327 17.871,-12.377 5.028,-4.883 7.511,-8.006 7.138,-8.978 -0.348,-0.907 0.617,-2.49 2.463,-4.044 9.364,-7.879 12.473,-15.601 7.643,-18.984 -3.777,-2.645 -5.767,-1.802 -13.085,5.545 -8.827,8.862 -15.1,13.131 -24.692,16.805 -9.545,3.656 -14,4.638 -14,3.086 0,-1.017 14.764,-22.569 30.617,-44.692 9.925,-13.851 9.436,-26.696 -1.39,-36.477 -15.215,-13.746 -26.899,-16.679 -38.971,-9.785 -4.398,2.512 -7.144,5.894 -23.254,28.654 -21.122,29.841 -19.692,28.004 -19.585,25.159 0.069,-1.851 -1.229,-2.753 -7.917,-5.498 -14.086,-5.782 -24.209,-7.755 -40,-7.801 -15.486,-0.045 -19.472,0.61 -19.554,3.216 -0.03,0.952 -0.826,-0.282 -1.769,-2.743 -1.359,-3.547 -3.904,-6.344 -12.28,-13.5 -26.365,-22.523 -40.422,-34.273 -44.597,-37.276 0,0 -4.518,-3.25 -4.518,-3.25 0,0 -46.769,0 -46.769,0 -40.552,0 -46.935,-0.202 -48.025,-1.515 -1.833,-2.209 -2.401,-13.928 -1.117,-23.059 2.509,-17.841 3.028,-20.307 5.148,-24.463 1.217,-2.386 4.418,-7.215 7.113,-10.731 7.062,-9.214 8.09,-11.695 8.998,-21.732 1.329,-14.68 5.247,-36.445 9.366,-52.024 2.608,-9.865 14.161,-35.886 20.043,-45.145 9.856,-15.514 29.108,-36.598 39.34,-43.084 3.092,-1.96 9.246,-6.181 13.676,-9.38 8.364,-6.04 18.637,-11.245 28.945,-14.666 3.3,-1.095 8.151,-2.928 10.78,-4.073 4.918,-2.143 17.638,-5.315 28.22,-7.039 8.274,-1.348 35.225,-3.377 36.27,-2.731 0.469,0.29 4.23,0.617 8.358,0.726 0,0 7.506,0.198 7.506,0.198 0,0 2.926,5.609 2.926,5.609 5.371,10.297 20.08,23.34 37.366,33.135 16.807,9.524 40.64,17.694 57.02,19.547 0,0 6.272,0.71 6.272,0.71 0,0 6.021,8.109 6.021,8.109 7.54,10.154 19.576,34.68 24.671,50.269 9.309,28.483 12.541,51.081 15.134,105.839 1.557,32.884 2.102,37.451 9.854,82.57 5.417,31.529 5.814,50.277 1.51,71.383 -1.777,8.712 -6.411,22.643 -9.663,29.047 -2.982,5.872 -11.117,17.631 -14.13,20.424 -1.438,1.333 -2.615,2.993 -2.615,3.687 0,1.648 -15.006,11.61 -22.583,14.992 -19.856,8.862 -42.716,12.623 -62.905,10.349 M 380.888,502.276 c 9.075,-4.309 16.291,-13.661 14.835,-19.228 -0.42,-1.607 -0.074,-1.547 2.964,0.514 6.624,4.495 22.676,5.225 32.551,1.48 9.775,-3.707 14.661,-7.714 19.561,-16.042 6.968,-11.842 8.356,-16.192 8.937,-28 0.604,-12.277 -0.553,-18.991 -4.832,-28.04 -5.992,-12.671 -14.913,-20.461 -27.072,-23.639 -13.539,-3.539 -28.355,1.123 -38.651,12.162 -9.724,10.426 -14.189,22.237 -14.17,37.477 0.012,9.442 1.223,14.389 5.867,23.96 1.713,3.531 2.952,6.583 2.752,6.783 -0.2,0.2 -1.661,-2.216 -3.247,-5.37 -3.372,-6.704 -5.979,-7.85 -16.069,-7.059 -15.7,1.231 -28.656,13.922 -26.946,26.395 2.417,17.632 25.126,27.341 43.52,18.607 m 274.267,0.295 c 9.356,-3.742 14.975,-9.583 16.634,-17.288 4.108,-19.085 -21.482,-33.925 -44.705,-25.924 -2.246,0.774 -4.084,1.331 -4.084,1.239 0,-0.092 0.9,-2.728 2,-5.858 3.625,-10.313 2.483,-28.019 -2.543,-39.418 -9.426,-21.381 -30.888,-32.172 -51.679,-25.985 -10.992,3.271 -22.045,15.058 -26.93,28.717 -1.999,5.59 -2.307,8.371 -2.326,20.946 0,0 -0.022,14.5 -0.022,14.5 0,0 4.964,9.32 4.964,9.32 6.928,13.007 9.823,16.054 19.691,20.728 8.146,3.858 8.608,3.952 19.345,3.952 13.319,0 15.733,-1.037 25.943,-11.149 5.045,-4.996 5.619,-5.408 2.122,-1.521 -4.539,5.045 -4.76,5.553 -4.136,9.5 2.009,12.716 18.189,22.553 34.571,21.018 3.025,-0.284 8.045,-1.533 11.155,-2.777 M 526.5,493.556 c 1.65,-0.689 4.463,-2.486 6.25,-3.993 2.591,-2.184 3.25,-3.494 3.25,-6.452 0,-6.711 -4.574,-8.064 -11.361,-3.361 -5.701,3.951 -11.642,3.791 -18.544,-0.5 -6.468,-4.021 -9.351,-4.068 -15.095,-0.25 -5.905,3.925 -12.11,4.108 -17,0.5 -5.67,-4.183 -11,-2.537 -11,3.397 0,3.333 2.925,6.265 9,9.019 6.413,2.907 13.834,2.72 21.084,-0.534 0,0 5.835,-2.619 5.835,-2.619 0,0 5.36,3.025 5.36,3.025 2.948,1.664 6.454,3.248 7.791,3.519 3.324,0.675 10.793,-0.232 14.43,-1.751 M 432.395,328.529 c 21.215,-10.365 31.979,-25.246 24.02,-33.205 -2.385,-2.385 -3.082,-2.544 -9.053,-2.065 -9.331,0.749 -17.937,5.281 -26.842,14.136 -10.505,10.445 -12.978,17.237 -8.065,22.15 3.779,3.779 10.863,3.418 19.94,-1.016 m 51.682,-33.452 c 3.625,-3.625 3.727,-6.968 0.334,-11 -3.93,-4.671 -11.045,-3.619 -13.986,2.068 -1.989,3.846 -1.802,5.253 1.164,8.778 3.529,4.194 8.388,4.254 12.488,0.154"
           stroke="#b6efd7"
           fill="#b6efd7"
           stroke-width="1" /><path
           id="path11"
           d="m 633,859.437 c -13.299,-2.872 -23.78,-10.38 -30.502,-21.85 -1.574,-2.686 -4.496,-9.654 -6.493,-15.485 -4.446,-12.979 -4.801,-13.224 -17.505,-12.065 -29.864,2.725 -68.15,0.26 -104.805,-6.746 -15.227,-2.91 -18.93,-2.61 -19.528,1.581 -0.544,3.81 0.63,6.715 3.185,7.879 3.181,1.449 23.219,5.898 32.648,7.248 11.013,1.577 12,1.879 12,3.665 0,3.442 -7.228,16.425 -12.131,21.789 C 480.087,856.156 469.81,860 450.982,860 421.102,860 406.563,848.436 394.618,815.171 392.242,808.555 387,790.927 387,789.554 387,789.249 418.412,789 456.804,789 c 0,0 69.803,0 69.803,0 0,0 5.084,-2.533 5.084,-2.533 6.378,-3.178 10.251,-8.555 11.288,-15.67 0.675,-4.635 0.787,-4.829 0.896,-1.547 0.114,3.439 0.364,3.75 3.013,3.75 4.76,0 19.653,-4.747 27.894,-8.891 11.007,-5.535 19.586,-12.344 26.476,-21.014 7.142,-8.988 8.675,-11.9 6.857,-13.024 -0.699,-0.432 4.952,-1.052 12.557,-1.376 15.166,-0.647 25.887,-2.729 39.461,-7.662 20.35,-7.396 45.867,-25.712 45.867,-32.924 0,-4.528 -3.034,-6.853 -7.997,-6.127 -0.823,0.12 -3.445,2.014 -5.826,4.209 -5.329,4.912 -6.876,4.17 -1.998,-0.959 14.106,-14.832 23.267,-38.726 25.796,-67.279 1.173,-13.241 -0.099,-29.732 -4.077,-52.883 -7.752,-45.119 -8.297,-49.686 -9.854,-82.57 -2.593,-54.758 -5.825,-77.356 -15.134,-105.839 -5.066,-15.502 -17.124,-40.103 -24.585,-50.161 0,0 -5.935,-8 -5.935,-8 0,0 11.066,-0.203 11.066,-0.203 7.627,-0.14 12.99,-0.803 17.258,-2.131 7.131,-2.219 6.308,-2.683 13.003,7.334 9.609,14.378 19.344,35.76 24.586,54 6.032,20.991 9.121,42.401 12.189,84.5 2.864,39.294 5.039,53.125 13.999,89 11.72,46.927 14.862,67.244 14.923,96.5 0.044,21.265 -0.949,30.964 -5.068,49.5 -6.385,28.733 -19.102,55.375 -36.293,76.032 -6.829,8.206 -7.984,10.715 -14.024,30.455 -10.009,32.712 -19.905,47.581 -35.564,53.44 -10.554,3.949 -27.741,5.042 -39.465,2.51"
           stroke="#68d3be"
           fill="#68d3be"
           stroke-width="1" /><path
           id="path12"
           d="m 561.881,434.993 c -0.89,-0.52 -2.168,-2.273 -2.84,-3.895 -1.54,-3.717 0.172,-7.807 4.211,-10.062 2.535,-1.415 3.048,-1.378 6.5,0.464 3.168,1.691 3.796,2.577 4.058,5.736 0.534,6.444 -6.428,10.971 -11.929,7.757"
           stroke="#ffffff"
           fill="#ffffff"
           stroke-width="1" /><path
           id="119"
           d="m 408.203,486.94 c -6.907,-1.223 -9.464,-2.634 -16.739,-9.24 -6.202,-5.631 -11.96,-15.448 -15.075,-25.7 -1.826,-6.01 -1.752,-20.165 0.143,-27.54 3.516,-13.682 13.288,-26.599 24.149,-31.918 21.154,-10.361 43.678,-1.88 54.223,20.418 4.279,9.049 5.436,15.763 4.832,28.04 -0.581,11.808 -1.969,16.158 -8.937,28 -3.142,5.339 -5.769,8.417 -9.119,10.683 -9.668,6.54 -22.192,9.254 -33.477,7.257 m 16.13,-3.873 c 0.755,-0.755 0.352,-1.068 -1.383,-1.072 -3.898,-0.009 -19.605,-8.676 -22.426,-12.375 -1.378,-1.807 -3.642,-6.848 -5.031,-11.203 -4.859,-15.232 -4.838,-15.047 -2.878,-24.874 2.102,-10.54 2.881,-12.022 10.885,-20.711 5.426,-5.89 6.706,-6.731 13.377,-8.783 4.659,-1.434 8.642,-2.065 10.809,-1.713 3.413,0.554 18.579,9.86 21.174,12.992 0.748,0.903 2.62,5.284 4.162,9.736 3.362,9.71 3.978,10.523 3.978,5.252 0,-6.27 -5.165,-19.33 -10.369,-26.22 -3.293,-4.36 -12.601,-10.548 -18.241,-12.127 -6.59,-1.845 -18.73,-0.778 -25.39,2.231 -7.361,3.326 -10.788,6.389 -16.246,14.525 -11.201,16.695 -12.258,35.356 -3.111,54.925 2.635,5.638 14.584,17.208 20.519,19.87 3.796,1.702 18.342,1.376 20.171,-0.453 m 11.239,-6.874 c 5.702,-2.945 11.919,-9.812 15.109,-16.693 2.479,-5.347 2.783,-7.143 2.8,-16.5 0.025,-14.1 -2.506,-21.115 -10.528,-29.178 -4.489,-4.512 -6.829,-6.021 -11.397,-7.349 -14.173,-4.12 -28.404,4.232 -34.677,20.353 -3.116,8.006 -3.121,22.329 -0.011,30.319 4.059,10.429 10.374,16.948 19.835,20.474 4.962,1.85 13.824,1.18 18.869,-1.426"
           stroke="#f1fffe"
           fill="#f1fffe"
           stroke-width="1" /><path
           id="72"
           d="m 545.01,661.75 c 0.018,-4.209 4.649,-12.28 9.492,-16.543 7.646,-6.731 13.994,-8.206 35.353,-8.214 14.096,-0.006 19.299,-0.403 25.871,-1.979 9.877,-2.368 19.371,-6.54 27.478,-12.073 3.292,-2.247 6.23,-3.84 6.53,-3.54 0.958,0.958 -4.664,7.468 -11.047,12.79 -7.815,6.516 -21.981,13.229 -31.18,14.776 -4.644,0.781 -11.742,0.941 -21.125,0.476 -22.941,-1.136 -31.881,1.725 -37.997,12.162 -2.933,5.005 -3.389,5.295 -3.375,2.145"
           stroke="#e8fcef"
           fill="#e8fcef"
           stroke-width="1" /><path
           id="path13"
           d="m 510.5,493.592 c -2.75,-0.678 -6.514,-2.028 -8.365,-2.998 -3.304,-1.732 -3.47,-1.717 -9.125,0.821 -7.173,3.219 -14.622,3.397 -21.01,0.501 -6.075,-2.754 -9,-5.686 -9,-9.019 0,-5.934 5.33,-7.58 11,-3.397 4.89,3.608 11.095,3.425 17,-0.5 5.744,-3.818 8.627,-3.771 15.095,0.25 6.902,4.291 12.843,4.451 18.544,0.5 6.533,-4.528 11.361,-3.348 11.361,2.776 0,3.768 -2.754,6.613 -9.012,9.311 -6.297,2.714 -10.7,3.183 -16.488,1.755"
           stroke="#22676a"
           fill="#22676a"
           stroke-width="1" /><path
           id="path14"
           d="m 416.703,477.619 c -9.461,-3.526 -15.776,-10.045 -19.835,-20.474 -3.11,-7.99 -3.105,-22.313 0.011,-30.319 6.273,-16.121 20.504,-24.473 34.677,-20.353 4.568,1.328 6.908,2.837 11.397,7.349 8.022,8.063 10.553,15.078 10.528,29.178 -0.017,9.357 -0.321,11.153 -2.8,16.5 -3.19,6.881 -9.407,13.748 -15.109,16.693 -5.045,2.606 -13.907,3.276 -18.869,1.426 m 3.22,-42.208 c 2.588,-2.178 3.077,-3.296 3.077,-7.045 0,-6.017 -3.218,-9.366 -9,-9.366 -5.782,0 -9,3.349 -9,9.366 0,3.749 0.489,4.867 3.077,7.045 1.733,1.458 4.32,2.589 5.923,2.589 1.603,0 4.19,-1.131 5.923,-2.589"
           stroke="#22676a"
           fill="#22676a"
           stroke-width="1" /><path
           id="path15"
           d="m 573.5,486.65 c -7.536,-2.5 -16.291,-7.573 -19.237,-11.147 -1.62,-1.966 -5.155,-7.721 -7.855,-12.789 0,0 -4.908,-9.214 -4.908,-9.214 0,0 0.022,-14.5 0.022,-14.5 0.019,-12.575 0.327,-15.356 2.326,-20.946 4.885,-13.659 15.938,-25.446 26.93,-28.717 16.76,-4.987 34.413,0.962 45.184,15.229 8.408,11.137 11.541,22.139 10.855,38.126 -0.386,8.997 -0.759,10.511 -4.514,18.308 -4.53,9.408 -14.454,20.47 -21.79,24.291 -5.034,2.622 -20.812,3.416 -27.013,1.359 m 24.693,-3.728 c 5.284,-2.791 17,-13.38 18.879,-17.063 10.761,-21.093 8.75,-44.837 -5.177,-61.122 -8.647,-10.111 -18.752,-14.375 -31.927,-13.472 -9.389,0.644 -14.256,2.961 -22.279,10.61 -6.716,6.403 -9.101,10.503 -11.104,19.09 -1.462,6.267 -0.55,9.242 1.25,4.079 1.848,-5.3 11.036,-16.407 15.482,-18.714 5.455,-2.83 17.454,-4.067 21.941,-2.262 3.462,1.393 13.086,8.401 16.004,11.653 2.702,3.012 7.592,17.397 8.315,24.463 0.597,5.837 0.323,7.15 -3.632,17.316 -5.866,15.081 -8.022,17.014 -27.945,26.599 3.746,1.226 17.12,0.446 20.193,-1.177 m -12.927,-5.497 c 14.145,-4.82 23.874,-24.293 20.951,-41.934 -3.546,-21.397 -19.387,-34.072 -36.402,-29.126 -22.821,6.634 -30.536,44.121 -12.95,62.922 8.494,9.08 17.805,11.748 28.401,8.138"
           stroke="#f1fffe"
           fill="#f1fffe"
           stroke-width="1" /><path
           id="path16"
           d="m 360.5,504.993 c -13.371,-2.764 -21.632,-10.379 -23.132,-21.324 -1.71,-12.473 11.246,-25.164 26.946,-26.395 9.894,-0.776 12.712,0.405 15.895,6.657 1.49,2.927 5.653,8.265 9.25,11.862 6.883,6.883 7.394,8.229 5.153,13.594 -4.464,10.685 -21.1,18.296 -34.112,15.606"
           stroke="#68d3be"
           fill="#68d3be"
           stroke-width="1" /><path
           id="path17"
           d="m 404.162,483.52 c -5.935,-2.662 -17.884,-14.232 -20.519,-19.87 -6.576,-14.067 -7.924,-29.276 -3.691,-41.622 2.503,-7.299 9.835,-18.823 14.467,-22.738 8.01,-6.77 23.791,-10.171 33.971,-7.321 5.64,1.579 14.948,7.767 18.241,12.127 5.204,6.89 10.369,19.95 10.369,26.22 0,5.271 -0.616,4.458 -3.978,-5.252 -1.542,-4.452 -3.414,-8.833 -4.162,-9.736 -2.595,-3.132 -17.761,-12.438 -21.174,-12.992 -2.167,-0.352 -6.15,0.279 -10.809,1.713 -6.671,2.052 -7.951,2.893 -13.377,8.783 -8.004,8.689 -8.783,10.171 -10.885,20.711 -1.96,9.827 -1.981,9.642 2.878,24.874 1.389,4.355 3.653,9.396 5.031,11.203 2.821,3.699 18.528,12.366 22.426,12.375 1.735,0.004 2.138,0.317 1.383,1.072 -1.829,1.829 -16.375,2.155 -20.171,0.453"
           stroke="#ffffff"
           fill="#ffffff"
           stroke-width="1" /><path
           id="path18"
           d="m 734.746,779.413 c -0.323,-0.323 1.992,-4.485 5.142,-9.25 3.15,-4.765 7.566,-11.455 9.814,-14.868 2.248,-3.413 5.215,-9.263 6.594,-13 1.379,-3.737 3.565,-9.671 4.856,-13.186 2.968,-8.079 4.816,-9.427 8.361,-6.096 4.166,3.914 11.491,19.463 11.465,24.339 -0.044,8.337 -5.385,15.455 -17.329,23.096 -8.819,5.641 -26.685,11.183 -28.903,8.965 m 19.118,-6.339 c 7.016,-2.792 12.557,-6.674 18.316,-12.833 5.255,-5.62 7.173,-10.872 5.934,-16.241 -1.078,-4.671 -5.283,-12.702 -8.864,-16.924 0,0 -2.903,-3.423 -2.903,-3.423 0,0 -4.75,11.923 -4.75,11.923 -5.27,13.23 -7.018,16.519 -16.305,30.684 -3.519,5.368 -6.15,10.161 -5.846,10.652 0.599,0.968 5.855,-0.431 14.418,-3.838"
           stroke="#179794"
           fill="#179794"
           stroke-width="1" /><path
           id="path19"
           d="m 321.514,512.75 c -6.93,-23.263 -2.836,-45.38 12.779,-69.026 4.176,-6.324 4.52,-7.359 5.156,-15.5 1.698,-21.742 6.103,-43.889 12.264,-61.659 21.217,-61.193 70.257,-103.185 135.61,-116.117 15.573,-3.082 41.188,-4.986 53.927,-4.009 0,0 9.75,0.748 9.75,0.748 0,0 0,3.281 0,3.281 0,1.805 0.261,4.586 0.58,6.18 0,0 0.579,2.898 0.579,2.898 0,0 -9.329,-0.722 -9.329,-0.722 -20.295,-1.571 -56.591,3.222 -70.59,9.321 -2.607,1.136 -7.44,2.961 -10.74,4.056 -10.308,3.421 -20.581,8.626 -28.945,14.666 -4.43,3.199 -10.584,7.42 -13.676,9.38 -10.232,6.486 -29.484,27.57 -39.34,43.084 -5.882,9.259 -17.435,35.28 -20.043,45.145 -4.119,15.579 -8.037,37.344 -9.366,52.024 -0.908,10.037 -1.936,12.518 -8.998,21.732 -2.695,3.516 -5.896,8.345 -7.113,10.731 -2.12,4.156 -2.639,6.622 -5.148,24.463 -1.284,9.131 -0.716,20.85 1.117,23.059 1.088,1.311 0.707,1.515 -2.827,1.515 -4.061,0 -4.092,-0.029 -5.647,-5.25"
           stroke="#e8fcef"
           fill="#e8fcef"
           stroke-width="1" /><path
           id="path20"
           d="m 267.799,698.414 c -4.094,-1.26 -5.988,-2.571 -6.373,-4.414 -0.057,-0.275 -1.074,-2.584 -2.259,-5.131 -4.488,-9.644 -6.271,-26.376 -4.097,-38.435 1.467,-8.134 4.482,-12.343 11.284,-15.754 5.207,-2.611 6.269,-2.785 14.312,-2.336 0,0 8.689,0.484 8.689,0.484 0,0 3.727,5.546 3.727,5.546 5.954,8.857 8.394,17.335 8.382,29.126 -0.009,9.116 -0.288,10.591 -3.153,16.683 -3.602,7.66 -8.557,11.922 -16.656,14.327 -6.039,1.794 -7.755,1.781 -13.856,-0.096"
           stroke="#b6efd7"
           fill="#b6efd7"
           stroke-width="1" /><path
           id="path21"
           d="m 568.144,262.673 c -2.055,-2.477 -4.144,-8.595 -4.144,-12.14 0,-3.659 11.663,-29.588 13.942,-30.997 1.225,-0.757 9.058,4.086 9.058,5.6 0,1.405 -0.738,1.033 -4.499,-2.269 -1.963,-1.723 -3.735,-2.961 -3.939,-2.75 -0.204,0.211 -3.373,6.683 -7.042,14.383 -7.496,15.73 -7.822,18.424 -3.091,25.572 2.413,3.647 2.2,5.595 -0.285,2.601"
           stroke="#197373"
           fill="#197373"
           stroke-width="1" /><path
           id="path22"
           d="m 739.446,776.912 c -0.304,-0.491 2.327,-5.284 5.846,-10.652 9.287,-14.165 11.035,-17.454 16.305,-30.684 0,0 4.75,-11.923 4.75,-11.923 0,0 2.903,3.423 2.903,3.423 3.581,4.222 7.786,12.253 8.864,16.924 0.47,2.036 0.377,5.118 -0.223,7.368 -1.151,4.315 -8.068,12.278 -14.527,16.724 -6.568,4.521 -22.862,10.529 -23.918,8.82"
           stroke="#6ad3c0"
           fill="#6ad3c0"
           stroke-width="1" /><path
           id="path23"
           d="m 569.994,478.066 c -8.338,-2.536 -16.557,-10.611 -19.902,-19.551 -11.648,-31.133 12.928,-63.134 38.629,-50.298 12.415,6.2 20.167,24.173 17.464,40.487 -3.432,20.713 -20.118,34.251 -36.191,29.362 m 1.094,-41.777 c 8.387,-4.954 4.626,-17.289 -5.271,-17.289 -8.341,0 -11.998,9.973 -5.894,16.077 3.362,3.362 6.879,3.744 11.165,1.212"
           stroke="#22676a"
           fill="#22676a"
           stroke-width="1" /><path
           id="path24"
           d="m 408.077,435.411 c -2.588,-2.178 -3.077,-3.296 -3.077,-7.045 0,-6.017 3.218,-9.366 9,-9.366 5.782,0 9,3.349 9,9.366 0,3.749 -0.489,4.867 -3.077,7.045 -1.733,1.458 -4.32,2.589 -5.923,2.589 -1.603,0 -4.19,-1.131 -5.923,-2.589 m 11.471,-2.057 c 4.673,-5.042 2.069,-11.059 -5.208,-12.035 -3.67,-0.492 -4.334,-0.257 -5.862,2.074 -1.981,3.023 -1.446,7.88 1.189,10.791 2.428,2.683 6.979,2.301 9.881,-0.83"
           stroke="#f1fffe"
           fill="#f1fffe"
           stroke-width="1" /><path
           id="path25"
           d="m 543.69,768.25 c -0.323,-2.612 -2.86,-12.175 -5.636,-21.25 -2.776,-9.075 -5.049,-17.265 -5.051,-18.199 -0.004,-1.97 12.941,-20.801 14.299,-20.801 0.501,0 2.55,1.297 4.554,2.883 11.192,8.857 29.475,15.749 46.644,17.582 8.825,0.942 10.5,1.42 10.5,2.993 0,2.615 -12.138,17.563 -18.353,22.601 -10.973,8.895 -34.109,18.941 -43.62,18.941 -2.53,0 -2.796,-0.378 -3.337,-4.75"
           stroke="#ffffff"
           fill="#ffffff"
           stroke-width="1" /><path
           id="path26"
           d="m 412.455,329.545 c -4.913,-4.913 -2.44,-11.705 8.065,-22.15 8.905,-8.855 17.511,-13.387 26.842,-14.136 5.971,-0.479 6.668,-0.32 9.053,2.065 5.835,5.835 1.719,15.865 -10.13,24.684 -15.265,11.361 -28.325,15.042 -33.83,9.537"
           stroke="#e8fcef"
           fill="#e8fcef"
           stroke-width="1" /><path
           id="path27"
           d="m 409.667,434.184 c -2.635,-2.911 -3.17,-7.768 -1.189,-10.791 1.528,-2.331 2.192,-2.566 5.862,-2.074 7.277,0.976 9.881,6.993 5.208,12.035 -2.902,3.131 -7.453,3.513 -9.881,0.83"
           stroke="#ffffff"
           fill="#ffffff"
           stroke-width="1" /><path
           id="path28"
           d="M 559.923,435.077 C 553.819,428.973 557.476,419 565.817,419 c 9.897,0 13.658,12.335 5.271,17.289 -4.286,2.532 -7.803,2.15 -11.165,-1.212 m 11.682,-1.591 c 1.959,-1.959 2.446,-3.339 2.205,-6.25 -0.262,-3.159 -0.89,-4.045 -4.058,-5.736 -3.452,-1.842 -3.965,-1.879 -6.5,-0.464 -4.039,2.255 -5.751,6.345 -4.211,10.062 2.268,5.475 8.326,6.626 12.564,2.388"
           stroke="#f1fffe"
           fill="#f1fffe"
           stroke-width="1" /><path
           id="path29"
           d="m 578,484.099 c 0,0 -2.5,-0.818 -2.5,-0.818 0,0 3,-1.173 3,-1.173 19.423,-7.594 21.579,-9.527 27.445,-24.608 3.955,-10.166 4.229,-11.479 3.632,-17.316 -0.723,-7.066 -5.613,-21.451 -8.315,-24.463 -2.918,-3.252 -12.542,-10.26 -16.004,-11.653 -4.487,-1.805 -16.486,-0.568 -21.941,2.262 -4.446,2.307 -13.634,13.414 -15.482,18.714 -1.8,5.163 -2.712,2.188 -1.25,-4.079 2.003,-8.587 4.388,-12.687 11.104,-19.09 8.023,-7.649 12.89,-9.966 22.279,-10.61 13.175,-0.903 23.28,3.361 31.927,13.472 13.927,16.285 15.938,40.029 5.177,61.122 -1.879,3.683 -13.595,14.272 -18.879,17.063 -3.073,1.623 -16.447,2.403 -20.193,1.177"
           stroke="#ffffff"
           fill="#ffffff"
           stroke-width="1" /><path
           id="path30"
           d="m 632.5,314.081 c -10.276,-2.642 -18.5,-5.472 -18.5,-6.366 0,-0.626 30.954,8.004 31.917,8.898 0.958,0.89 -3.05,0.134 -13.417,-2.532"
           stroke="#197373"
           fill="#197373"
           stroke-width="1" /><path
           id="path31"
           d="m 509,649.582 c 0,-0.23 -4.725,-16.608 -10.5,-36.394 -5.775,-19.786 -10.5,-36.914 -10.5,-38.062 0,-3.008 3.335,-3.62 19.5,-3.578 10.984,0.029 15.887,0.508 22.758,2.227 10.624,2.658 24.767,8.126 25.42,9.828 0.735,1.915 -0.509,3.83 -23.483,36.147 C 513.708,645.756 509,651.811 509,649.582"
           stroke="#ffffff"
           fill="#ffffff"
           stroke-width="1" /><path
           id="path32"
           d="m 634,504.945 c -13.397,-2.734 -23.019,-10.791 -24.563,-20.566 -0.615,-3.894 -0.383,-4.418 4.206,-9.5 2.671,-2.958 5.689,-7.24 6.707,-9.514 2.091,-4.673 3.852,-5.714 12.571,-7.429 14.072,-2.768 29.283,2.371 35.695,12.06 6.147,9.289 4.191,20.528 -4.858,27.909 -6.938,5.659 -20.641,8.901 -29.758,7.04"
           stroke="#68d3be"
           fill="#68d3be"
           stroke-width="1" /><path
           id="path33"
           d="m 636.285,579.25 c 1.589,-2.953 8.064,-13.25 8.332,-13.25 0.183,0 -0.107,1.159 -0.646,2.576 -1.083,2.849 -6.771,11.424 -7.578,11.424 -0.281,0 -0.33,-0.338 -0.108,-0.75"
           stroke="#197373"
           fill="#197373"
           stroke-width="1" /><path
           id="path34"
           d="m 568.5,706.605 c -2.75,-1.254 -5.651,-3.068 -6.446,-4.031 -1.101,-1.333 10.279,4.062 12.863,6.098 1.254,0.988 -2.053,-0.077 -6.417,-2.067"
           stroke="#197373"
           fill="#197373"
           stroke-width="1" /><path
           id="path35"
           d="m 499.042,832.77 c -0.023,-0.401 0.682,-2.538 1.566,-4.748 0.884,-2.21 1.348,-4.694 1.031,-5.52 -0.317,-0.826 -0.141,-1.502 0.392,-1.502 1.612,0 1.008,5.276 -1.031,9 -1.054,1.925 -1.935,3.171 -1.958,2.77"
           stroke="#197373"
           fill="#197373"
           stroke-width="1" /><path
           id="path36"
           d="m 439.84,861.078 c -9.835,-1.382 -18.328,-5.014 -25.349,-10.842 -3.57,-2.963 -6.491,-5.865 -6.491,-6.449 0,-0.584 2.19,0.988 4.867,3.492 9.74,9.111 20.51,12.721 37.949,12.721 12.051,0 20.491,-1.585 27.516,-5.169 5.294,-2.701 12.873,-9.916 16.731,-15.929 3.278,-5.109 4.323,-6.127 3.234,-3.152 -1.539,4.205 -8.697,13.463 -12.874,16.653 -9.417,7.19 -29.266,10.968 -45.583,8.675"
           stroke="#197373"
           fill="#197373"
           stroke-width="1" /><path
           id="path37"
           d="m 471.589,294.923 c -2.966,-3.525 -3.153,-4.932 -1.164,-8.778 2.941,-5.687 10.056,-6.739 13.986,-2.068 3.393,4.032 3.291,7.375 -0.334,11 -4.1,4.1 -8.959,4.04 -12.488,-0.154"
           stroke="#e8fcef"
           fill="#e8fcef"
           stroke-width="1" /><path
           id="path38"
           d="m 511.199,495.051 c -4.816,-1.195 -5.401,-2.373 -0.699,-1.409 8.178,1.677 17.478,-0.675 23.584,-5.401 -4.772,5.414 -15.566,8.626 -22.885,6.81"
           stroke="#6ad3c0"
           fill="#6ad3c0"
           stroke-width="1" /></g><g
         id="graduation cap 3"><path
           id="path39"
           d="m 484.75,755.92 c -0.962,-0.561 -1.75,-1.381 -1.75,-1.822 0,-0.441 3.263,-2.275 7.25,-4.074 3.987,-1.799 8.557,-3.891 10.154,-4.648 3.586,-1.7 4.114,-1.723 2.856,-0.126 -0.542,0.688 -1.261,2.415 -1.6,3.838 -0.339,1.423 -1.559,3.786 -2.711,5.25 -1.794,2.281 -2.837,2.658 -7.272,2.632 -2.848,-0.017 -5.965,-0.489 -6.927,-1.05"
           stroke="#8cddd7"
           fill="#8cddd7"
           stroke-width="1" /><path
           id="34"
           d="m 439.831,564.965 c -0.918,-0.536 -2.368,-2.884 -3.222,-5.219 -1.664,-4.549 -3.997,-16.691 -3.334,-17.354 0.458,-0.458 24.515,19.373 26.597,21.926 1.269,1.556 0.63,1.68 -8.5,1.652 -5.43,-0.017 -10.623,-0.469 -11.541,-1.005"
           stroke="#c8f5e9"
           fill="#c8f5e9"
           stroke-width="1" /><path
           id="path40"
           d="m 495.151,726.393 c -1.262,-0.884 -2.636,-2.531 -3.054,-3.66 -0.798,-2.158 1.164,-12.394 2.664,-13.894 0.5,-0.5 2.957,0.233 5.731,1.708 7.504,3.99 14.407,12.453 10.157,12.453 -0.743,0 -3.467,1.125 -6.053,2.5 -5.53,2.94 -6.404,3.023 -9.445,0.893"
           stroke="#ffffff"
           fill="#ffffff"
           stroke-width="1" /></g><g
         id="graduation cap 2"><path
           id="path41"
           d="m 374.222,564.815 c -1.159,-2.263 -3.149,-10.081 -3.198,-12.565 -0.026,-1.315 6.614,-1.722 10.61,-0.65 2.371,0.636 2.214,3.86 -0.233,4.799 -0.775,0.298 -1.401,1.893 -1.401,3.57 0,2.056 -0.493,3.031 -1.532,3.031 -0.843,0 -1.876,0.929 -2.296,2.065 -0.753,2.035 -0.781,2.032 -1.95,-0.25"
           stroke="#27ada5"
           fill="#27ada5"
           stroke-width="1" /><path
           id="path42"
           d="m 314.069,649.311 c -1.406,-5.064 -1.37,-5.311 0.776,-5.311 4.735,0 7.022,8.163 2.469,8.811 -1.78,0.253 -2.383,-0.397 -3.245,-3.5"
           stroke="#ffffff"
           fill="#ffffff"
           stroke-width="1" /><path
           id="path43"
           d="m 324.5,774.102 c -2.2,-1.02 -4.526,-2.745 -5.169,-3.835 -0.643,-1.09 -4.762,-14.308 -9.153,-29.374 -11.583,-39.741 -10.761,-35.669 -7.835,-38.764 2.912,-3.08 10.45,-13.061 11.012,-14.581 0.257,-0.694 1.022,-0.624 2.266,0.207 1.033,0.69 3.768,2.231 6.077,3.424 3.74,1.932 4.639,2.036 8.244,0.956 4.627,-1.386 7.058,-4.999 7.058,-10.489 0,-2.665 -0.98,-4.535 -4.298,-8.2 -3.989,-4.406 -4.709,-4.782 -10,-5.221 -5.498,-0.456 -5.702,-0.575 -5.702,-3.335 0,-2.305 0.656,-3.137 3.369,-4.271 9.87,-4.124 8.552,-16.563 -2.369,-22.358 -2.953,-1.567 -5.441,-2.204 -7.238,-1.852 -2.289,0.448 -2.84,0.131 -3.358,-1.934 -0.792,-3.156 0.098,-5.475 2.1,-5.475 2.83,0 6.374,-3.102 7.524,-6.585 1.621,-4.91 0.395,-8.8 -4.033,-12.801 -8.222,-7.428 -17.457,-6.932 -20.017,1.073 -1.697,5.307 -2.131,5.564 -6.378,3.79 -2.065,-0.863 -6.516,-2.128 -9.892,-2.811 0,0 -6.138,-1.242 -6.138,-1.242 0,0 -10.271,-35.344 -10.271,-35.344 -6.604,-22.725 -10.057,-36.197 -9.671,-37.735 1.395,-5.558 -2.036,-5.345 86.095,-5.345 44.703,0 81.282,0.338 81.287,0.75 0.047,3.686 5.173,29.696 6.507,33.016 2.154,5.363 9.142,11.599 14.762,13.172 2.771,0.776 9.777,1.09 19.708,0.883 0,0 15.41,-0.321 15.41,-0.321 0,0 2.852,9.5 2.852,9.5 1.569,5.225 7.27,24.575 12.669,43 0,0 9.815,33.5 9.815,33.5 0,0 -4.057,5.975 -4.057,5.975 -2.231,3.286 -5.611,7.399 -7.51,9.139 0,0 -3.453,3.164 -3.453,3.164 0,0 -2.607,-5.138 -2.607,-5.138 -3.344,-6.592 -7.823,-9.64 -14.165,-9.64 -4.091,0 -5.128,0.434 -7.352,3.077 -7.321,8.701 2.392,22.06 14.807,20.364 4.784,-0.654 4.882,-0.615 4.264,1.695 -0.348,1.3 -0.638,3.377 -0.646,4.614 -0.01,1.726 -0.592,2.25 -2.498,2.25 -1.366,0 -3.943,1.304 -5.727,2.898 -2.649,2.367 -3.244,3.641 -3.244,6.957 0,2.689 0.75,5.002 2.221,6.852 4.851,6.101 5.309,7.716 4.256,14.998 -0.54,3.737 -0.991,9.124 -1.002,11.972 -0.017,4.415 0.368,5.483 2.615,7.25 1.449,1.14 3.587,2.087 4.75,2.105 1.163,0.018 2.988,0.693 4.056,1.5 1.133,0.857 4.122,1.468 7.178,1.468 4.509,0 5.533,-0.378 7.378,-2.723 1.178,-1.498 2.387,-3.95 2.687,-5.449 0.735,-3.677 2.561,-5.141 11.462,-9.198 0,0 7.583,-3.456 7.583,-3.456 0,0 4.795,16.009 4.795,16.009 5.216,17.415 5.27,20.097 0.459,22.531 -1.943,0.983 -23.686,1.255 -99.983,1.249 -92.826,-0.007 -97.692,-0.096 -101.5,-1.861 m 25.83,-18.177 c 8.931,-2.48 7.929,-16.159 -1.54,-21.02 -7.009,-3.598 -13.268,-1.996 -15.767,4.038 -3.04,7.339 3.54,16.448 12.977,17.965 0.275,0.044 2.224,-0.398 4.33,-0.983 m 37.208,-0.377 c 11.4,-4.763 3.371,-23.517 -9.505,-22.201 -5.913,0.604 -9.048,4.074 -8.998,9.959 0.046,5.441 1.779,8.426 6.575,11.329 4.509,2.73 7.105,2.928 11.928,0.913 m 39.824,-1.466 c 1.604,-1.604 2.138,-3.365 2.138,-7.054 0,-4.255 -0.466,-5.398 -3.465,-8.492 -6.722,-6.936 -16.754,-6.845 -19.688,0.177 -2.457,5.88 0.241,12.165 7.064,16.455 3.987,2.507 10.897,1.968 13.951,-1.086 M 463,754 c 1.463,-1.463 2,-3.333 2,-6.965 0,-4.124 -0.524,-5.562 -3.091,-8.486 -3.355,-3.821 -9.51,-6.117 -13.629,-5.083 -3.531,0.886 -7.28,5.02 -7.28,8.028 0,3.949 3.534,10.011 7.206,12.363 4.435,2.84 12.024,2.913 14.794,0.143 m -10.301,-31.169 c 2.341,-1.934 3.534,-7.593 2.355,-11.166 -1.812,-5.49 -8.381,-10.665 -13.538,-10.665 -3.319,0 -8.086,2.436 -8.895,4.545 -1.233,3.212 -0.581,8.785 1.403,11.995 3.825,6.188 14.074,9.092 18.675,5.291 m -109.411,-0.843 c 7.873,-6.193 1.003,-20.988 -9.746,-20.988 -3.262,0 -5.178,0.665 -7.465,2.589 -2.63,2.213 -3.077,3.269 -3.077,7.277 0,2.7 0.686,5.668 1.617,6.997 4.159,5.938 13.689,8.043 18.671,4.125 m 36.632,0.262 c 4.876,-3.985 3.235,-13.54 -3.132,-18.248 -3.877,-2.866 -10.289,-3.214 -14.035,-0.76 -3.219,2.109 -4.514,7.508 -2.795,11.657 1.253,3.025 5.518,7.479 8.042,8.397 3.357,1.222 9.842,0.653 11.92,-1.046 m 36.625,-0.705 c 6.548,-6.548 -1.318,-19.531 -11.84,-19.541 -5.237,-0.005 -8.705,3.507 -8.705,8.816 0,9.893 14.045,17.225 20.545,10.725 m -50.324,-29.589 c 4.709,-1.308 6.779,-4.254 6.779,-9.644 0,-7.703 -8.506,-14.378 -16.428,-12.892 -6.694,1.256 -9.053,7.443 -5.716,14.988 1.63,3.686 2.949,5.056 6.351,6.6 5.085,2.308 4.383,2.234 9.014,0.948 m 77.092,-1.761 c 4.9,-5.114 2.944,-15.019 -3.787,-19.179 -9.307,-5.752 -19.745,-0.153 -18.168,9.744 1.144,7.175 7.174,11.997 15.205,12.158 3.208,0.064 4.628,-0.508 6.75,-2.723 m -36.768,-0.65 c 6.728,-6.728 -1.107,-20.53 -11.66,-20.541 -7.728,-0.008 -11.844,7.332 -8.238,14.689 3.893,7.941 14.646,11.104 19.898,5.852 m -46.031,-31.558 c 4.771,-4.482 3.934,-12.222 -1.938,-17.913 -2.721,-2.637 -4.516,-3.458 -8.377,-3.829 -4.351,-0.418 -5.274,-0.145 -8.059,2.391 -4.261,3.879 -4.819,7.729 -1.939,13.36 4.292,8.392 14.54,11.415 20.313,5.991 m 36.562,-0.568 c 1.835,-1.954 2.401,-3.624 2.331,-6.875 -0.227,-10.494 -12.743,-17.34 -20.212,-11.055 -3.85,3.24 -4.51,6.936 -2.185,12.234 2.352,5.358 6.948,8.268 13.066,8.273 3.629,0.003 5.077,-0.53 7,-2.577 m 35.847,-0.008 c 2.344,-1.973 3.077,-3.413 3.077,-6.05 0,-11.381 -13.7,-18.815 -21.077,-11.438 -9.866,9.866 7.271,26.516 18,17.488 m 36.154,-0.334 c 4.615,-4.615 3.325,-12.036 -3.018,-17.374 -6.812,-5.732 -18.059,-1.827 -18.059,6.27 0,11.201 13.741,18.44 21.077,11.104 m -45.379,-31.311 c 3.106,-2.851 3.69,-6.754 1.74,-11.628 -4.467,-11.165 -18.934,-13.375 -23.051,-3.521 -1.396,3.34 -1.39,4.086 0.061,7.885 0.881,2.308 2.687,5.215 4.012,6.46 4.588,4.31 12.992,4.702 17.238,0.804 m -74.77,0.771 c 3.311,-1.712 4.072,-3.308 4.072,-8.542 0,-10.068 -14.265,-16.884 -21.077,-10.072 -5.057,5.057 -2.838,13.501 4.681,17.811 4.54,2.603 8.363,2.851 12.324,0.803 m 37.385,-1.342 c 3.305,-3.449 3.604,-9.178 0.727,-13.896 -4.148,-6.804 -13.957,-8.536 -19.117,-3.376 -3.431,3.431 -3.707,6.62 -1.029,11.867 3.175,6.221 5.948,8 12.669,8.131 3.206,0.062 4.63,-0.513 6.75,-2.726 m 72.764,-0.118 c 3.383,-3.383 3.803,-7.421 1.317,-12.66 -4.093,-8.626 -16.931,-10.08 -20.919,-2.369 -5.754,11.127 10.807,23.824 19.602,15.029 M 317.908,586.113 c 10.169,-5.115 8.921,-22.032 -2.357,-31.934 -9.254,-8.125 -26.137,-6.201 -30.164,3.438 -3.093,7.402 -1.035,16.04 5.412,22.715 8.057,8.343 17.86,10.433 27.109,5.781 m 53.934,-1.033 c 0.333,-2.357 -1.438,-12.646 -4.537,-26.353 -1.032,-4.565 -2.219,-7.254 -3.641,-8.25 -5.174,-3.624 -9.523,-0.405 -12.189,9.023 -2.306,8.156 -3.104,8.725 -6.315,4.5 -1.463,-1.925 -4.883,-5.885 -7.601,-8.799 -4.401,-4.72 -5.33,-5.266 -8.5,-5 -5.413,0.455 -5.398,3.046 0.15,25.799 1.14,4.675 2.534,9.084 3.096,9.799 0.622,0.79 2.623,1.182 5.109,1 0,0 4.086,-0.299 4.086,-0.299 0,0 -0.162,-4.75 -0.162,-4.75 -0.089,-2.612 0.17,-4.75 0.576,-4.75 0.406,0 1.794,1.125 3.086,2.5 3.416,3.636 8.261,3.419 11.158,-0.5 1.22,-1.65 2.538,-3 2.93,-3 0.392,0 1.253,2.253 1.914,5.007 1.335,5.563 3.046,7.101 7.498,6.738 2.326,-0.19 3.077,-0.789 3.342,-2.665 m 14.615,-3.58 c -0.705,-5.64 -0.43,-6.084 3.437,-5.542 0.767,0.107 3.624,2.636 6.35,5.619 4.378,4.79 5.412,5.423 8.856,5.423 2.149,0 3.9,-0.49 3.9,-1.091 0,-0.6 -2.053,-3.493 -4.562,-6.43 0,0 -4.562,-5.339 -4.562,-5.339 0,0 1.672,-3.233 1.672,-3.233 C 406.108,562.088 398.339,551 387.599,551 385.62,551 384,550.55 384,550 c 0,-0.553 -2.615,-1 -5.845,-1 -4.404,0 -6.255,0.453 -7.509,1.838 -1.546,1.708 -1.548,2.348 -0.035,9.048 0.895,3.965 2.174,7.757 2.842,8.425 0.668,0.668 2.027,4.584 3.018,8.702 2.191,9.101 2.832,9.987 7.223,9.987 0,0 3.45,0 3.45,0 0,0 -0.687,-5.5 -0.687,-5.5"
           stroke="#ffffff"
           fill="#ffffff"
           stroke-width="1" /><path
           id="109"
           d="m 447,626.879 c -7.103,-2.824 -10.657,-10.774 -7.525,-16.831 3.988,-7.711 16.826,-6.257 20.919,2.369 4.811,10.138 -3.016,18.588 -13.394,14.462 m 8,-8.764 c 0,-4.657 -7.882,-8.471 -9.389,-4.543 -1.244,3.241 2.71,7.338 7.139,7.398 1.82,0.025 2.25,-0.521 2.25,-2.855"
           stroke="#98d0c6"
           fill="#98d0c6"
           stroke-width="1" /><path
           id="path44"
           d="m 255.062,688.699 c -10.469,-13.867 -13.482,-37.045 -6.584,-50.657 4.72,-9.314 12.073,-13.435 22.988,-12.884 5.743,0.29 7.939,0.914 11.794,3.349 2.605,1.646 4.737,3.341 4.738,3.766 0.001,0.425 -3.546,0.478 -7.883,0.116 -7.37,-0.615 -8.261,-0.469 -13.635,2.227 -6.936,3.479 -9.935,7.636 -11.41,15.818 -2.216,12.291 -0.323,29.415 4.292,38.816 3.229,6.577 0.851,6.272 -4.3,-0.551"
           stroke="#e8fcef"
           fill="#e8fcef"
           stroke-width="1" /><path
           id="path45"
           d="m 302,585.348 c -2.296,-1.033 -2.984,-1.732 -2,-2.034 0.825,-0.253 2.4,-0.845 3.5,-1.315 1.1,-0.47 3.626,-1.122 5.613,-1.447 5.751,-0.942 7.478,-3.868 7.043,-11.934 -0.105,-1.943 -1.579,-4.305 -4.524,-7.25 -3.918,-3.918 -4.853,-4.368 -9.066,-4.368 -6.012,0 -8.143,1.188 -9.498,5.294 -1.238,3.751 0.561,11.533 3.388,14.657 1.427,1.576 1.433,1.896 0.069,3.028 -1.932,1.603 -3.344,0.52 -7.496,-5.749 -3.337,-5.038 -4.052,-11.651 -1.75,-16.2 3.692,-7.297 15.039,-9.297 24.15,-4.257 3.951,2.186 5.621,3.994 8.417,9.117 5.821,10.664 4.386,18.286 -4.174,22.172 -5.055,2.295 -9.02,2.378 -13.672,0.286"
           stroke="#27ada5"
           fill="#27ada5"
           stroke-width="1" /><path
           id="path46"
           d="m 363.851,587.002 c -0.907,-0.543 -2.188,-3.241 -2.849,-5.995 -0.661,-2.754 -1.522,-5.007 -1.914,-5.007 -0.392,0 -1.71,1.35 -2.93,3 -2.897,3.919 -7.742,4.136 -11.158,0.5 -1.292,-1.375 -2.68,-2.5 -3.086,-2.5 -0.406,0 -0.665,2.138 -0.576,4.75 0,0 0.162,4.75 0.162,4.75 0,0 -4.086,0.299 -4.086,0.299 -2.486,0.182 -4.487,-0.21 -5.109,-1 -0.974,-1.238 -3.817,-11.92 -6.333,-23.799 -0.641,-3.025 -1.01,-6.85 -0.819,-8.5 0.305,-2.637 0.778,-3.036 3.906,-3.299 3.17,-0.266 4.099,0.28 8.5,5 2.718,2.914 6.138,6.874 7.601,8.799 3.211,4.225 4.009,3.656 6.315,-4.5 2.666,-9.428 7.015,-12.647 12.189,-9.023 2.156,1.51 3.315,5.503 6.846,23.603 2.189,11.221 1.876,13.348 -2.01,13.665 -1.65,0.135 -3.742,-0.2 -4.649,-0.743 m -22.863,-1.752 c -0.007,-0.412 -0.676,-3.225 -1.488,-6.25 -0.812,-3.025 -1.481,-6.062 -1.488,-6.75 -0.025,-2.669 2.725,-1.031 6.294,3.75 3.007,4.028 4.306,5 6.685,5 2.738,0 3.073,-0.418 4.592,-5.75 1.638,-5.749 2.922,-8.079 3.908,-7.093 0.288,0.288 1.476,4.421 2.64,9.184 0,0 2.116,8.659 2.116,8.659 0,0 3.376,0 3.376,0 3.831,0 3.903,-0.269 1.968,-7.346 -0.775,-2.835 -2.381,-9.429 -3.569,-14.654 -3.182,-13.997 -2.764,-13.156 -6.357,-12.807 -3.046,0.296 -3.291,0.671 -6.525,10.057 -1.848,5.362 -3.689,9.75 -4.093,9.75 -0.404,0 -4.453,-4.5 -8.998,-10 -6.989,-8.458 -8.709,-10 -11.156,-10 -3.742,0 -3.729,0.403 0.607,18.862 1.925,8.194 3.5,15.177 3.5,15.518 0,0.341 1.8,0.62 4,0.62 2.2,0 3.995,-0.338 3.988,-0.75"
           stroke="#98d0c6"
           fill="#98d0c6"
           stroke-width="1" /><path
           id="path47"
           d="m 368,723.296 c -2.524,-0.918 -6.789,-5.372 -8.042,-8.397 -1.719,-4.149 -0.424,-9.548 2.795,-11.657 3.746,-2.454 10.158,-2.106 14.035,0.76 6.367,4.708 8.008,14.263 3.132,18.248 -2.078,1.699 -8.563,2.268 -11.92,1.046 m 7,-8.214 c 0,-2.934 -1.049,-5.038 -3.045,-6.106 -4.235,-2.266 -6.726,2.41 -3.3,6.195 2.258,2.495 6.345,2.437 6.345,-0.089"
           stroke="#98d0c6"
           fill="#98d0c6"
           stroke-width="1" /><path
           id="path48"
           d="m 303.5,588.086 c -4.727,-1.185 -8.698,-3.609 -12.701,-7.754 -6.447,-6.675 -8.505,-15.313 -5.412,-22.715 4.027,-9.639 20.91,-11.563 30.164,-3.438 11.278,9.902 12.526,26.819 2.357,31.934 -4.21,2.118 -10.431,2.97 -14.408,1.973 m 12.172,-3.024 c 8.56,-3.886 9.995,-11.508 4.174,-22.172 -2.796,-5.123 -4.466,-6.931 -8.417,-9.117 -9.111,-5.04 -20.458,-3.04 -24.15,4.257 -2.302,4.549 -1.587,11.162 1.75,16.2 4.152,6.269 5.564,7.352 7.496,5.749 1.364,-1.132 1.358,-1.452 -0.069,-3.028 -2.827,-3.124 -4.626,-10.906 -3.388,-14.657 1.355,-4.106 3.486,-5.294 9.498,-5.294 4.213,0 5.148,0.45 9.066,4.368 2.945,2.945 4.419,5.307 4.524,7.25 0.435,8.066 -1.292,10.992 -7.043,11.934 -1.987,0.325 -4.513,0.977 -5.613,1.447 -1.1,0.47 -2.675,1.062 -3.5,1.315 -2.148,0.658 4.759,3.604 8.5,3.625 1.65,0.009 4.877,-0.835 7.172,-1.877 m -3.895,-7.619 c 1.744,-1.222 2.223,-2.537 2.223,-6.117 0,-3.965 -0.507,-5.069 -3.882,-8.444 -3.144,-3.144 -4.604,-3.882 -7.672,-3.882 -5.066,0 -7.446,2.298 -7.446,7.19 0,8.974 10.232,15.837 16.777,11.253"
           stroke="#8cddd7"
           fill="#8cddd7"
           stroke-width="1" /><path
           id="path49"
           d="m 429.343,691.454 c -6.009,-2.633 -9.695,-10.854 -7.468,-16.652 2.344,-6.103 10.924,-7.944 17.651,-3.786 10.112,6.25 7.965,22.121 -2.963,21.902 -2.235,-0.045 -5.484,-0.703 -7.22,-1.464 m 13.202,-2.909 c 2.993,-2.993 3.152,-6.889 0.46,-11.304 -4.265,-6.995 -12.968,-9.368 -17.55,-4.786 -4.45,4.45 -2.425,13.774 3.735,17.192 4.016,2.229 10.565,1.688 13.355,-1.102"
           stroke="#98d0c6"
           fill="#98d0c6"
           stroke-width="1" /><path
           id="path50"
           d="m 391.898,689.737 c -10.013,-6.669 -7.985,-20.744 2.987,-20.733 10.553,0.011 18.388,13.813 11.66,20.541 -3.288,3.288 -9.869,3.374 -14.647,0.192 m 9.71,-6.159 c 0.71,-1.849 -1.141,-5.258 -3.558,-6.552 -2.671,-1.429 -5.05,-0.24 -5.05,2.524 0,4.023 7.299,7.439 8.608,4.028"
           stroke="#98d0c6"
           fill="#98d0c6"
           stroke-width="1" /><path
           id="path51"
           d="m 357.207,691.008 c -7.324,-3.324 -10.375,-13.85 -5.558,-19.173 6.326,-6.991 21.351,0.382 21.351,10.477 0,5.39 -2.07,8.336 -6.779,9.644 -4.631,1.286 -3.929,1.36 -9.014,-0.948 m 8.28,-7.987 c 0.921,-1.49 -1.344,-5.032 -3.802,-5.946 -4.414,-1.641 -6.897,1.713 -3.662,4.948 2.08,2.08 6.435,2.662 7.464,0.998"
           stroke="#98d0c6"
           fill="#98d0c6"
           stroke-width="1" /><path
           id="path52"
           d="m 454.041,657.381 c -6.653,-5.598 -7.914,-12.662 -3.118,-17.458 5.837,-5.837 16.126,-2.837 19.713,5.748 2.111,5.052 1.686,8.161 -1.559,11.406 -3.99,3.99 -10.499,4.122 -15.036,0.304 m 10.617,-6.932 c 0.819,-2.135 -3.567,-6.607 -6.121,-6.241 -2.388,0.342 -3.29,4.18 -1.491,6.347 1.61,1.94 6.855,1.867 7.612,-0.106"
           stroke="#98d0c6"
           fill="#98d0c6"
           stroke-width="1" /><path
           id="path53"
           d="m 304.511,630.36 c -1.025,-1.573 -4.483,-5.368 -7.686,-8.434 0,0 -5.824,-5.574 -5.824,-5.574 0,0 1.618,-4.749 1.618,-4.749 3.053,-8.96 11.724,-9.806 20.376,-1.989 4.428,4.001 5.654,7.891 4.033,12.801 -1.15,3.484 -4.694,6.585 -7.525,6.585 -0.862,0 -1.919,0.949 -2.348,2.11 -0.754,2.039 -0.844,2.014 -2.644,-0.75 m 4.292,-12.985 c 0.384,-2.69 -2.246,-5.375 -5.267,-5.375 -3.531,0 -4.638,3.756 -1.91,6.483 2.289,2.289 6.791,1.594 7.177,-1.108"
           stroke="#98d0c6"
           fill="#98d0c6"
           stroke-width="1" /><path
           id="path54"
           d="m 342.594,755.959 c -4.192,-1.254 -9.468,-6.77 -10.198,-10.662 -1.237,-6.593 3.108,-12.297 9.366,-12.297 9.691,0 17.299,10.132 13.835,18.423 -1.112,2.662 -2.303,3.679 -5.267,4.502 -4.32,1.199 -3.845,1.198 -7.736,0.034 m 5.835,-7.53 c 2.043,-2.043 1.988,-3.761 -0.179,-5.622 -2.689,-2.31 -4.893,-2.789 -6.712,-1.459 -1.318,0.964 -1.451,1.75 -0.652,3.851 0.9,2.368 3.476,4.69 5.293,4.771 0.373,0.017 1.386,-0.677 2.25,-1.541"
           stroke="#98d0c6"
           fill="#98d0c6"
           stroke-width="1" /><path
           id="path55"
           d="m 375.61,754.635 c -4.796,-2.903 -6.529,-5.888 -6.575,-11.329 -0.095,-11.269 14.858,-14.03 21.456,-3.96 4.067,6.208 2.674,13.851 -2.953,16.202 -4.823,2.015 -7.419,1.817 -11.928,-0.913 m 9.285,-7.008 c 1.619,-1.951 0.433,-4.249 -2.907,-5.632 -4.896,-2.028 -6.812,1.181 -2.988,5.005 2.339,2.339 4.301,2.547 5.895,0.627"
           stroke="#98d0c6"
           fill="#98d0c6"
           stroke-width="1" /><path
           id="path56"
           d="m 472.268,721.635 c -6.075,-8.534 -6.392,-13.67 -1.118,-18.108 4.098,-3.448 6.856,-3.358 6.828,0.223 -0.027,3.43 -2.507,20.123 -3.066,20.64 -0.227,0.209 -1.416,-1.031 -2.644,-2.755"
           stroke="#98d0c6"
           fill="#98d0c6"
           stroke-width="1" /><path
           id="path57"
           d="m 310.37,690.456 c 6.034,-12.507 6.031,-32.14 -0.007,-48.129 -1.932,-5.116 -1.142,-6.733 2.894,-5.926 13.94,2.788 18.799,19.335 7.112,24.218 -2.713,1.134 -3.369,1.966 -3.369,4.271 0,2.76 0.204,2.879 5.702,3.335 5.291,0.439 6.011,0.815 10,5.221 3.318,3.665 4.298,5.535 4.298,8.2 0,5.49 -2.431,9.103 -7.058,10.489 -3.605,1.08 -4.504,0.976 -8.244,-0.956 -2.309,-1.193 -5.044,-2.734 -6.077,-3.424 -1.487,-0.993 -1.972,-0.997 -2.328,-0.018 -0.248,0.68 -1.337,2.255 -2.421,3.5 0,0 -1.971,2.263 -1.971,2.263 0,0 1.469,-3.044 1.469,-3.044 m 18.048,-5.063 c 2.413,-0.926 1.999,-5.987 -0.641,-7.836 -2.823,-1.978 -6.667,-2.006 -7.416,-0.055 -1.761,4.589 3.425,9.669 8.057,7.891 m -8.588,-35.225 c 0.39,-2.754 -2.369,-6.168 -4.985,-6.168 -2.146,0 -2.182,0.247 -0.776,5.311 0.862,3.103 1.465,3.753 3.245,3.5 1.41,-0.201 2.303,-1.139 2.516,-2.643"
           stroke="#98d0c6"
           fill="#98d0c6"
           stroke-width="1" /><path
           id="path58"
           d="m 336.604,625.734 c -7.519,-4.31 -9.738,-12.754 -4.681,-17.811 6.812,-6.812 21.077,0.004 21.077,10.072 0,5.234 -0.761,6.83 -4.072,8.542 -3.961,2.048 -7.784,1.8 -12.324,-0.803 m 8.72,-6.883 c 1.666,-2.646 -1.733,-7.054 -5.137,-6.661 -3.693,0.427 -4.309,4.909 -0.994,7.236 2.708,1.901 4.689,1.715 6.131,-0.575"
           stroke="#98d0c6"
           fill="#98d0c6"
           stroke-width="1" /><path
           id="path59"
           d="M 448.206,753.857 C 444.534,751.505 441,745.443 441,741.494 c 0,-3.008 3.749,-7.142 7.28,-8.028 4.119,-1.034 10.274,1.262 13.629,5.083 2.567,2.924 3.091,4.362 3.091,8.486 0,6.657 -2.263,8.971 -8.75,8.948 -3.101,-0.011 -5.894,-0.749 -8.044,-2.126 m 8.212,-4.464 c 2.627,-1.008 1.984,-6.083 -1.019,-8.051 -5.19,-3.4 -8.736,2.675 -3.819,6.543 3.059,2.406 2.75,2.309 4.838,1.508"
           stroke="#98d0c6"
           fill="#98d0c6"
           stroke-width="1" /><path
           id="path60"
           d="m 346.5,658.785 c -4.929,-2.826 -8.867,-9.812 -8.052,-14.285 0.301,-1.65 1.962,-4.289 3.692,-5.864 2.785,-2.536 3.708,-2.809 8.059,-2.391 11.085,1.065 17.633,14.867 10.315,21.742 -3.462,3.252 -9.166,3.577 -14.014,0.798 m 12.865,-1.858 c 7.025,-5.526 -0.511,-18.902 -10.66,-18.92 -7.322,-0.013 -10.853,6.938 -7.156,14.087 3.317,6.415 12.603,8.934 17.816,4.833"
           stroke="#98d0c6"
           fill="#98d0c6"
           stroke-width="1" /><path
           id="path61"
           d="m 382.182,657.97 c -3.944,-2.405 -7.274,-9.199 -6.485,-13.231 0.722,-3.691 5.681,-7.739 9.479,-7.739 4.26,0 9.491,2.723 12.001,6.248 3.082,4.329 3.036,10.831 -0.101,14.171 -3.106,3.307 -9.958,3.56 -14.894,0.551 m 8.618,-6.17 c 2.68,-2.68 -0.206,-7.8 -4.396,-7.8 -5.841,0 -3.402,8.24 2.646,8.937 0.303,0.035 1.09,-0.477 1.75,-1.137"
           stroke="#98d0c6"
           fill="#98d0c6"
           stroke-width="1" /><path
           id="path62"
           d="m 465.966,690.701 c -7.72,-4.082 -10.247,-12.836 -5.377,-18.624 2.224,-2.643 3.261,-3.077 7.352,-3.077 6.365,0 10.82,3.045 14.197,9.704 2.582,5.091 2.675,5.159 4.41,3.242 3.443,-3.804 2.631,-0.976 -1.317,4.589 -3.928,5.537 -4.098,5.645 -9.504,6.027 -4.303,0.304 -6.435,-0.102 -9.761,-1.861 m 7.844,-8.888 c 0.623,-5.397 -7.609,-7.664 -8.648,-2.381 -0.513,2.612 2.828,5.71 5.786,5.365 1.933,-0.225 2.627,-0.949 2.862,-2.984"
           stroke="#98d0c6"
           fill="#98d0c6"
           stroke-width="1" /><path
           id="path63"
           d="m 419.411,658.109 c -7.881,-4.806 -9.858,-12.816 -4.488,-18.186 7.377,-7.377 21.077,0.057 21.077,11.438 0,7.203 -9.503,11.069 -16.589,6.748 m 8.399,-8.305 c 0.357,-3.08 -3.419,-6.275 -6.169,-5.22 -2.379,0.913 -2.014,5.041 0.609,6.882 3.084,2.165 5.19,1.536 5.56,-1.662"
           stroke="#98d0c6"
           fill="#98d0c6"
           stroke-width="1" /><path
           id="path64"
           d="m 413.411,755.168 c -6.823,-4.29 -9.521,-10.575 -7.064,-16.455 2.934,-7.022 12.966,-7.113 19.688,-0.177 2.999,3.094 3.465,4.237 3.465,8.492 0,6.249 -2.473,9.009 -8.638,9.637 -3.173,0.323 -5.204,-0.084 -7.451,-1.497 M 421,745.523 c 0,-2.878 -3.879,-5.891 -6.359,-4.939 -1.913,0.734 -2.179,4.478 -0.441,6.216 0.66,0.66 2.46,1.2 4,1.2 2.313,0 2.8,-0.431 2.8,-2.477"
           stroke="#98d0c6"
           fill="#98d0c6"
           stroke-width="1" /><path
           id="path65"
           d="m 374,627.291 c -4.146,-1.524 -9,-8.983 -9,-13.828 0,-1.559 1.182,-3.799 2.923,-5.54 5.16,-5.16 14.969,-3.428 19.117,3.376 4.725,7.749 0.663,16.78 -7.477,16.622 -2.235,-0.043 -4.738,-0.327 -5.563,-0.63 m 6.418,-6.898 c 4.067,-1.561 -0.01,-8.871 -4.586,-8.223 -3.195,0.453 -3.57,4.065 -0.701,6.738 2.436,2.269 2.902,2.4 5.287,1.485"
           stroke="#98d0c6"
           fill="#98d0c6"
           stroke-width="1" /><path
           id="path66"
           d="m 412.185,628.02 c -4.376,-1.049 -7.769,-4.365 -9.737,-9.518 -1.451,-3.799 -1.457,-4.545 -0.061,-7.885 4.117,-9.854 18.584,-7.644 23.051,3.521 3.714,9.282 -3.019,16.334 -13.253,13.882 m 10.18,-3.093 c 4.864,-3.826 2.898,-12.747 -3.709,-16.83 -9.88,-6.106 -19.318,1.92 -14.107,11.997 3.317,6.415 12.603,8.934 17.816,4.833"
           stroke="#98d0c6"
           fill="#98d0c6"
           stroke-width="1" /><path
           id="path67"
           d="m 329.367,722.082 c -4.616,-2.815 -6.367,-5.9 -6.367,-11.216 0,-4.008 0.447,-5.064 3.077,-7.277 2.287,-1.924 4.203,-2.589 7.465,-2.589 10.749,0 17.619,14.795 9.746,20.988 -3.293,2.59 -9.756,2.634 -13.921,0.094 m 9.46,-7.406 c 0.783,-4.108 -6.767,-7.88 -8.216,-4.104 -0.691,1.801 0.764,5.002 2.628,5.78 2.391,0.998 5.241,0.144 5.588,-1.676"
           stroke="#98d0c6"
           fill="#98d0c6"
           stroke-width="1" /><path
           id="path68"
           d="m 403.411,722.109 c -7.537,-4.596 -9.833,-12.777 -4.956,-17.654 6.605,-6.605 20.529,1.082 20.541,11.34 0.008,7.156 -8.531,10.616 -15.585,6.314"
           stroke="#27ada5"
           fill="#27ada5"
           stroke-width="1" /><path
           id="path69"
           d="m 429.19,689.647 c -6.16,-3.418 -8.185,-12.742 -3.735,-17.192 4.582,-4.582 13.285,-2.209 17.55,4.786 4.324,7.092 0.805,13.79 -7.21,13.724 -2.362,-0.019 -5.334,-0.613 -6.605,-1.318"
           stroke="#27ada5"
           fill="#27ada5"
           stroke-width="1" /><path
           id="path70"
           d="m 448.762,619.927 c -4.036,-2.351 -4.472,-7.927 -0.62,-7.927 3.495,0 6.858,2.999 6.858,6.115 0,2.334 -0.43,2.88 -2.25,2.855 -1.237,-0.017 -3.032,-0.486 -3.988,-1.043"
           stroke="#ffffff"
           fill="#ffffff"
           stroke-width="1" /><path
           id="path71"
           d="m 409.299,625.04 c -9.344,-5.698 -7.741,-19.04 2.288,-19.04 7.281,0 13.413,6.116 13.413,13.378 0,6.793 -8.701,9.93 -15.701,5.662"
           stroke="#27ada5"
           fill="#27ada5"
           stroke-width="1" /><path
           id="path72"
           d="m 440.274,722.942 c -6.628,-3.336 -10.057,-11.132 -7.653,-17.397 0.809,-2.109 5.576,-4.545 8.895,-4.545 5.157,0 11.726,5.175 13.538,10.665 1.179,3.573 -0.014,9.232 -2.355,11.166 -2.698,2.229 -8.12,2.278 -12.425,0.111 m 7.073,-8.405 c 0.679,-1.769 -1.825,-5.167 -4.28,-5.809 -4.463,-1.167 -5.144,5.563 -0.729,7.205 2.524,0.939 4.304,0.443 5.009,-1.396"
           stroke="#98d0c6"
           fill="#98d0c6"
           stroke-width="1" /><path
           id="path73"
           d="m 301.626,618.483 c -2.728,-2.727 -1.621,-6.483 1.91,-6.483 5.368,0 7.527,7.202 2.34,7.804 -1.452,0.168 -3.351,-0.422 -4.25,-1.321"
           stroke="#ffffff"
           fill="#ffffff"
           stroke-width="1" /><path
           id="path74"
           d="m 333,585.38 c 0,-0.341 -1.575,-7.324 -3.5,-15.518 C 325.164,551.403 325.151,551 328.893,551 c 2.447,0 4.167,1.542 11.156,10 4.545,5.5 8.594,10 8.998,10 0.404,0 2.245,-4.388 4.093,-9.75 3.234,-9.386 3.479,-9.761 6.525,-10.057 3.593,-0.349 3.175,-1.19 6.357,12.807 1.188,5.225 2.794,11.819 3.569,14.654 1.935,7.077 1.863,7.346 -1.968,7.346 0,0 -3.376,0 -3.376,0 0,0 -2.116,-8.659 -2.116,-8.659 -1.164,-4.763 -2.352,-8.896 -2.64,-9.184 -0.986,-0.986 -2.27,1.344 -3.908,7.093 -1.519,5.332 -1.854,5.75 -4.592,5.75 -2.379,0 -3.678,-0.972 -6.685,-5 -3.569,-4.781 -6.319,-6.419 -6.294,-3.75 0.007,0.688 0.676,3.725 1.488,6.75 1.958,7.294 2.063,7 -2.5,7 -2.2,0 -4,-0.279 -4,-0.62"
           stroke="#27ada5"
           fill="#27ada5"
           stroke-width="1" /><path
           id="path75"
           d="m 379.262,585.75 c -1.362,-1.732 -5.651,-19.695 -4.885,-20.461 -0.93,4.802 7.11,-6.736 7.024,-8.89 2.142,-0.822 2.674,-4.216 0.742,-4.73 -0.903,-0.24 0.764,-0.489 3.706,-0.553 3.096,-0.067 6.79,0.568 8.77,1.507 6.888,3.269 10.189,11.98 6.929,18.284 0,0 -1.672,3.233 -1.672,3.233 0,0 4.562,5.339 4.562,5.339 2.509,2.937 4.562,5.83 4.562,6.43 0,0.601 -1.751,1.091 -3.9,1.091 -3.444,0 -4.478,-0.633 -8.856,-5.423 -2.726,-2.983 -5.583,-5.512 -6.35,-5.619 -3.867,-0.542 -4.142,-0.098 -3.437,5.542 0,0 0.687,5.5 0.687,5.5 0,0 -3.45,0 -3.45,0 -1.897,0 -3.891,-0.562 -4.432,-1.25 m 12.804,-18.785 c 2.47,-1.322 2.489,-5.153 0.036,-7.373 -1.33,-1.204 -3.2,-1.623 -6.25,-1.404 -4.22,0.303 -4.348,0.411 -4.203,3.578 0.082,1.796 0.406,3.934 0.719,4.75 0.667,1.739 6.76,2.021 9.698,0.449"
           stroke="#3db1a8"
           fill="#3db1a8"
           stroke-width="1" /><path
           id="path76"
           d="M 301.457,577.137 C 297.241,574.566 295,570.766 295,566.19 c 0,-4.892 2.38,-7.19 7.446,-7.19 3.068,0 4.528,0.738 7.672,3.882 3.375,3.375 3.882,4.479 3.882,8.444 0,3.58 -0.479,4.895 -2.223,6.117 -2.953,2.069 -6.603,1.961 -10.32,-0.306"
           stroke="#ffffff"
           fill="#ffffff"
           stroke-width="1" /><path
           id="path77"
           d="m 375.131,618.908 c -2.869,-2.673 -2.494,-6.285 0.701,-6.738 4.576,-0.648 8.653,6.662 4.586,8.223 -2.385,0.915 -2.851,0.784 -5.287,-1.485"
           stroke="#ffffff"
           fill="#ffffff"
           stroke-width="1" /><path
           id="path78"
           d="m 414.2,746.8 c -1.738,-1.738 -1.472,-5.482 0.441,-6.216 2.48,-0.952 6.359,2.061 6.359,4.939 0,2.046 -0.487,2.477 -2.8,2.477 -1.54,0 -3.34,-0.54 -4,-1.2"
           stroke="#ffffff"
           fill="#ffffff"
           stroke-width="1" /><path
           id="path79"
           d="m 323.228,684.77 c -4.245,-2.046 -4.231,-8.77 0.018,-8.77 3.648,0 6.754,2.737 6.754,5.95 0,3.857 -2.479,4.889 -6.772,2.82"
           stroke="#ffffff"
           fill="#ffffff"
           stroke-width="1" /><path
           id="path80"
           d="m 457.046,650.555 c -1.799,-2.167 -0.897,-6.005 1.491,-6.347 2.554,-0.366 6.94,4.106 6.121,6.241 -0.757,1.973 -6.002,2.046 -7.612,0.106"
           stroke="#ffffff"
           fill="#ffffff"
           stroke-width="1" /><path
           id="path81"
           d="m 339.193,619.426 c -3.315,-2.327 -2.699,-6.809 0.994,-7.236 5.149,-0.595 7.732,7.599 2.706,8.583 -0.766,0.15 -2.431,-0.456 -3.7,-1.347"
           stroke="#ffffff"
           fill="#ffffff"
           stroke-width="1" /><path
           id="path82"
           d="m 395.223,683.443 c -2.565,-1.797 -2.961,-5.946 -0.651,-6.832 2.024,-0.777 5.079,0.868 6.482,3.49 2.327,4.348 -1.37,6.467 -5.831,3.342"
           stroke="#ffffff"
           fill="#ffffff"
           stroke-width="1" /><path
           id="path83"
           d="m 358.023,682.023 c -3.235,-3.235 -0.752,-6.589 3.662,-4.948 2.458,0.914 4.723,4.456 3.802,5.946 -1.029,1.664 -5.384,1.082 -7.464,-0.998"
           stroke="#ffffff"
           fill="#ffffff"
           stroke-width="1" /><path
           id="path84"
           d="m 422.25,651.466 c -2.623,-1.841 -2.988,-5.969 -0.609,-6.882 2.75,-1.055 6.526,2.14 6.169,5.22 -0.37,3.198 -2.476,3.827 -5.56,1.662"
           stroke="#ffffff"
           fill="#ffffff"
           stroke-width="1" /><path
           id="path85"
           d="m 333.239,716.352 c -1.864,-0.778 -3.319,-3.979 -2.628,-5.78 1.449,-3.776 8.999,-0.004 8.216,4.104 -0.347,1.82 -3.197,2.674 -5.588,1.676"
           stroke="#ffffff"
           fill="#ffffff"
           stroke-width="1" /><path
           id="path86"
           d="m 442.338,715.933 c -4.415,-1.642 -3.734,-8.372 0.729,-7.205 2.455,0.642 4.959,4.04 4.28,5.809 -0.705,1.839 -2.485,2.335 -5.009,1.396"
           stroke="#ffffff"
           fill="#ffffff"
           stroke-width="1" /><path
           id="path87"
           d="m 386.28,651.98 c -2.289,-0.921 -3.97,-5.055 -2.815,-6.923 1.038,-1.68 5.071,-1.227 6.88,0.772 1.954,2.159 2.118,4.308 0.455,5.971 -1.378,1.378 -1.528,1.384 -4.52,0.18"
           stroke="#ffffff"
           fill="#ffffff"
           stroke-width="1" /><path
           id="path88"
           d="m 346.299,657.04 c -6.324,-3.856 -8.253,-12.176 -3.844,-16.585 6.507,-6.507 19.52,0.634 19.538,10.722 0.013,6.993 -8.578,10.202 -15.694,5.863"
           stroke="#27ada5"
           fill="#27ada5"
           stroke-width="1" /><path
           id="path89"
           d="m 368.655,715.171 c -3.426,-3.785 -0.935,-8.461 3.3,-6.195 1.996,1.068 3.045,3.172 3.045,6.106 0,2.526 -4.087,2.584 -6.345,0.089"
           stroke="#ffffff"
           fill="#ffffff"
           stroke-width="1" /><path
           id="path90"
           d="m 379,747 c -3.824,-3.824 -1.908,-7.033 2.988,-5.005 3.34,1.383 4.526,3.681 2.907,5.632 -1.594,1.92 -3.556,1.712 -5.895,-0.627"
           stroke="#ffffff"
           fill="#ffffff"
           stroke-width="1" /><path
           id="path91"
           d="m 451.58,747.885 c -4.917,-3.868 -1.371,-9.943 3.819,-6.543 3.895,2.552 3.298,8.658 -0.846,8.658 -0.156,0 -1.494,-0.951 -2.973,-2.115"
           stroke="#ffffff"
           fill="#ffffff"
           stroke-width="1" /><path
           id="path92"
           d="m 343.695,748.889 c -0.993,-0.578 -2.257,-2.238 -2.809,-3.69 -1.797,-4.725 2.879,-6.244 7.364,-2.392 2.167,1.861 2.222,3.579 0.179,5.622 -1.829,1.829 -2.303,1.874 -4.734,0.46"
           stroke="#ffffff"
           fill="#ffffff"
           stroke-width="1" /><path
           id="path93"
           d="m 466.61,683.122 c -3.71,-4.1 0.231,-8.767 4.849,-5.741 1.984,1.3 2.582,2.428 2.351,4.432 -0.4,3.461 -4.567,4.219 -7.2,1.309"
           stroke="#ffffff"
           fill="#ffffff"
           stroke-width="1" /><path
           id="path94"
           d="m 372.691,567.637 c -0.372,-0.969 -1.364,-4.727 -2.204,-8.349 -2.023,-8.721 -0.855,-10.288 7.668,-10.288 3.23,0 5.845,0.447 5.845,1 0,0.564 -2.833,1 -6.5,1 -3.883,0 -6.5,0.424 -6.5,1.053 0,0.579 0.711,4.181 1.581,8.005 1.509,6.634 1.578,11.405 0.11,7.579"
           stroke="#98d0c6"
           fill="#98d0c6"
           stroke-width="1" /><path
           id="path95"
           d="m 383.303,564.635 c -1.387,-4.519 -0.082,-6.635 4.092,-6.635 3.719,0 6.605,2.532 6.605,5.794 0,2.517 -2.717,4.206 -6.766,4.206 -2.419,0 -3.069,-0.556 -3.931,-3.365"
           stroke="#ffffff"
           fill="#ffffff"
           stroke-width="1" /><path
           id="path96"
           d="m 382.423,566.659 c -1.199,-3.124 -0.945,-7.938 0.445,-8.425 1.049,-0.368 1.134,-0.061 0.363,1.317 -0.673,1.203 -0.674,2.748 -0.003,4.674 1.045,2.998 0.289,5.285 -0.805,2.434"
           stroke="#98d0c6"
           fill="#98d0c6"
           stroke-width="1" /></g><g
         id="graduation cap 1"
         style="display:inline"><path
           id="path97"
           d="m 639,300.495 c -12.36,-3.09 -35.655,-12.865 -44.517,-18.678 -3.841,-2.52 -10.133,-7.477 -13.983,-11.017 -3.85,-3.54 -7.9,-6.774 -9,-7.186 -1.796,-0.672 -1.831,-0.844 -0.345,-1.678 0.91,-0.511 3.712,-5.805 6.228,-11.764 2.515,-5.959 5.748,-13.4 7.183,-16.534 0,0 2.609,-5.699 2.609,-5.699 0,0 14.506,14.067 14.506,14.067 22.929,22.235 28.386,24.982 49.674,25.009 6.68,0.008 12.767,0.41 13.527,0.891 1.001,0.634 1.191,1.939 0.689,4.735 -1.759,9.799 -6.751,24.047 -9.77,27.885 -2.408,3.061 -4.446,3.058 -16.801,-0.031"
           stroke="#27ada5"
           fill="#27ada5"
           stroke-width="1" /><path
           id="path98"
           d="m 567.114,257.736 c -1.163,-2.402 -2.114,-5.509 -2.114,-6.905 0,-1.982 11.95,-29.048 13.559,-30.711 0.531,-0.548 7.156,5.127 7.863,6.735 0.328,0.745 -0.932,4.795 -2.8,9 -1.868,4.205 -5.147,11.692 -7.286,16.637 -2.292,5.298 -4.551,9.118 -5.499,9.301 -1.059,0.204 -2.332,-1.183 -3.723,-4.057"
           stroke="#b6efd7"
           fill="#b6efd7"
           stroke-width="1" /><path
           id="path99"
           d="m 749.917,253.615 c -0.605,-0.559 -32.435,-1.529 -70.417,-2.146 -18.15,-0.295 -35.316,-0.773 -38.147,-1.062 -6.818,-0.696 -11.503,-3.794 -24.959,-16.508 -25.071,-23.688 -34.138,-32.02 -38.588,-35.455 -2.582,-1.993 -5.403,-4.707 -6.27,-6.029 -0.867,-1.322 -5.054,-5.163 -9.306,-8.535 0,0 -7.73,-6.131 -7.73,-6.131 0,0 56.5,0.675 56.5,0.675 62.729,0.749 61.747,0.649 74.827,7.653 8.054,4.313 8.593,4.501 7.637,2.673 -0.359,-0.688 1.076,0.675 3.191,3.029 6.497,7.232 28.034,29.001 44.604,45.085 8.668,8.413 15.504,15.711 15.191,16.217 -0.551,0.892 -5.692,1.312 -6.533,0.534"
           stroke="#27ada5"
           fill="#27ada5"
           stroke-width="1" /><path
           id="path100"
           d="m 686.5,186.422 c -11.835,-6.801 -14.742,-7.205 -56.5,-7.841 -20.625,-0.314 -46.161,-0.573 -56.747,-0.576 0,0 -19.247,-0.005 -19.247,-0.005 0,0 -4.047,-3.656 -4.047,-3.656 -2.923,-2.64 -3.744,-3.959 -2.956,-4.747 0.771,-0.771 18.875,-0.993 61.794,-0.757 56.896,0.313 60.974,0.453 65.025,2.223 5.87,2.565 22.989,19.164 19.463,18.872 -0.432,-0.036 -3.485,-1.617 -6.785,-3.513"
           stroke="#b6efd7"
           fill="#b6efd7"
           stroke-width="1" /><path
           id="path101"
           d="m 640.5,302.596 c -13.031,-2.818 -37.42,-12.843 -48,-19.73 -8.089,-5.266 -22.283,-18.105 -20.626,-18.657 0.617,-0.206 4.61,2.832 8.874,6.752 4.264,3.92 10.913,9.115 14.777,11.546 15.273,9.608 53.594,22.697 58.276,19.905 3.536,-2.109 8.232,-13.792 11.358,-28.256 0.956,-4.422 0.912,-5.498 -0.252,-6.235 -0.774,-0.49 -6.872,-0.898 -13.552,-0.906 -14.206,-0.018 -21.83,-1.919 -30.08,-7.5 -6.167,-4.172 -36.34,-33.42 -34.535,-33.476 0.682,-0.021 3.157,2.027 5.5,4.552 7.37,7.943 30.456,28.213 34.442,30.242 7.105,3.616 11.759,4.211 40.797,5.219 15.938,0.553 29.304,1.331 29.702,1.729 0.92,0.92 -4.33,22.231 -6.973,28.305 -3.082,7.082 -6.437,8.275 -24.208,8.613 -12.221,0.232 -16.229,-0.098 -25.5,-2.103"
           stroke="#179794"
           fill="#179794"
           stroke-width="1" /><path
           id="path102"
           d="m 743.917,255.616 c -0.229,-0.211 -17.067,-0.702 -37.417,-1.092 -53.301,-1.021 -70.376,-1.891 -74.01,-3.77 -1.655,-0.856 -8.572,-6.663 -15.372,-12.905 -6.8,-6.242 -15.457,-13.948 -19.24,-17.123 -3.783,-3.175 -6.878,-6.184 -6.878,-6.686 0,-0.502 -3.445,-3.753 -7.656,-7.226 -4.211,-3.473 -10.639,-9.239 -14.287,-12.814 -3.648,-3.575 -9.879,-9.343 -13.846,-12.817 -3.967,-3.474 -7.718,-7.299 -8.337,-8.5 -0.9,-1.747 -0.451,-1.571 2.251,0.883 1.857,1.686 6.913,5.724 11.237,8.974 4.324,3.25 9.069,7.372 10.542,9.159 1.473,1.787 6.045,6.073 10.16,9.525 4.115,3.452 11.072,9.695 15.459,13.874 34.539,32.895 36.528,34.461 44.83,35.31 2.831,0.289 20.672,0.776 39.647,1.081 38.059,0.611 58.054,1.215 68.159,2.058 3.868,0.323 6.91,0.149 7.259,-0.415 0.33,-0.534 -6.491,-7.855 -15.159,-16.268 -28.35,-27.519 -51.471,-51.706 -47.109,-49.281 2.468,1.372 64.675,62.519 65.324,64.211 1.115,2.905 -1.493,4.206 -8.43,4.206 -3.691,0 -6.898,-0.173 -7.127,-0.384"
           stroke="#197373"
           fill="#197373"
           stroke-width="1" /></g><g
         id="pencil"><path
           id="path103"
           d="m 598,580.431 c -6.875,-5.178 -12.617,-9.98 -12.76,-10.672 -0.143,-0.692 0.789,-2.562 2.072,-4.155 0,0 2.333,-2.897 2.333,-2.897 0,0 13.678,10.269 13.678,10.269 7.523,5.648 13.677,10.482 13.677,10.742 0,1.273 -4.284,6.273 -5.318,6.205 -0.65,-0.042 -6.807,-4.314 -13.682,-9.492 m 15.3,5.228 c 0.753,-1.962 -0.192,-3.002 -6.3,-6.932 -3.025,-1.946 -7.9,-5.606 -10.832,-8.133 -5.847,-5.038 -6.659,-5.361 -7.564,-3.004 -0.864,2.253 -0.107,3.118 6.256,7.143 3.102,1.962 7.758,5.525 10.347,7.917 4.843,4.475 7.195,5.35 8.093,3.009"
           stroke="#f1fffe"
           fill="#f1fffe"
           stroke-width="1" /><path
           id="path104"
           d="m 512.423,699.797 c 0,0 -5.077,-4.05 -5.077,-4.05 0,0 10.077,-14.322 10.077,-14.322 5.542,-7.877 10.362,-14.345 10.71,-14.373 0.348,-0.028 0.957,2.964 1.352,6.649 0.395,3.685 1.12,7.761 1.613,9.056 0.632,1.662 0.421,3.295 -0.715,5.549 -2.36,4.683 -10.72,15.652 -11.883,15.592 -0.55,-0.029 -3.285,-1.874 -6.077,-4.101"
           stroke="#68d3be"
           fill="#68d3be"
           stroke-width="1" /><path
           id="path105"
           d="m 605.207,582.65 c -2.589,-2.392 -7.245,-5.955 -10.347,-7.917 -6.363,-4.025 -7.12,-4.89 -6.256,-7.143 0.905,-2.357 1.717,-2.034 7.564,3.004 2.932,2.527 7.807,6.187 10.832,8.133 6.108,3.93 7.053,4.97 6.3,6.932 -0.898,2.341 -3.25,1.466 -8.093,-3.009"
           stroke="#ffffff"
           fill="#ffffff"
           stroke-width="1" /><path
           id="path106"
           d="m 580.745,623.256 c 7.867,-0.321 8.311,-0.465 9.689,-3.129 0.794,-1.536 3.079,-4.749 5.077,-7.14 1.998,-2.391 4.486,-6.022 5.53,-8.068 0,0 1.898,-3.72 1.898,-3.72 0,0 -4.545,-4.19 -4.545,-4.19 -5.738,-5.289 -5.181,-6.154 0.949,-1.473 5.63,4.299 5.85,6.274 1.407,12.656 -1.787,2.568 -5.002,7.176 -7.142,10.239 0,0 -3.891,5.569 -3.891,5.569 0,0 -8.609,-0.204 -8.609,-0.204 0,0 -8.608,-0.203 -8.608,-0.203 0,0 8.245,-0.337 8.245,-0.337"
           stroke="#179794"
           fill="#179794"
           stroke-width="1" /><path
           id="path107"
           d="m 501.21,693.761 c -1.26,-0.607 -2.16,-1.688 -2,-2.404 0.16,-0.716 5.465,-8.621 11.79,-17.568 27.087,-38.315 42.215,-59.829 53,-75.375 6.325,-9.117 11.992,-16.986 12.593,-17.487 0.706,-0.588 2.411,0.237 4.817,2.331 0,0 3.725,3.242 3.725,3.242 0,0 -5.89,8 -5.89,8 -3.239,4.4 -9.922,13.715 -14.851,20.699 -7.92,11.223 -9.83,13.274 -16.428,17.641 -4.106,2.718 -8.502,6.056 -9.767,7.419 -2.371,2.554 -7.141,14.684 -7.178,18.256 -0.032,3.042 -3.331,8.642 -13.686,23.235 -9.873,13.914 -10.777,14.587 -16.125,12.011"
           stroke="#b6efd7"
           fill="#b6efd7"
           stroke-width="1" /><path
           id="path108"
           d="m 576.619,621.838 c 1.165,-0.565 3.168,-2.896 4.45,-5.182 1.282,-2.286 4.185,-6.181 6.451,-8.656 6.215,-6.788 8.755,-10.84 8.015,-12.786 -0.359,-0.943 1.149,0.041 3.351,2.185 0,0 4.003,3.898 4.003,3.898 0,0 -1.873,3.671 -1.873,3.671 -1.03,2.019 -3.507,5.628 -5.505,8.019 -1.998,2.391 -4.292,5.623 -5.098,7.181 -1.409,2.725 -1.739,2.829 -8.689,2.764 -5.683,-0.053 -6.772,-0.286 -5.105,-1.094"
           stroke="#27ada5"
           fill="#27ada5"
           stroke-width="1" /><path
           id="path109"
           d="m 493.25,727.901 c -2.337,-1.656 -4.25,-3.462 -4.25,-4.014 0,-0.552 0.522,-5.252 1.16,-10.445 0.866,-7.047 1.528,-9.442 2.61,-9.442 4.746,0 20.12,11.188 23.147,16.845 1.078,2.014 0.626,2.383 -7.525,6.149 -4.769,2.203 -9.171,3.986 -9.782,3.961 -0.611,-0.024 -3.023,-1.398 -5.36,-3.054 m 11.346,-2.401 c 2.586,-1.375 5.31,-2.5 6.053,-2.5 4.25,0 -2.653,-8.463 -10.157,-12.453 -2.774,-1.475 -5.231,-2.208 -5.731,-1.708 -1.5,1.5 -3.462,11.736 -2.664,13.894 0.826,2.234 4.612,5.267 6.573,5.267 0.674,0 3.34,-1.125 5.926,-2.5"
           stroke="#f1fffe"
           fill="#f1fffe"
           stroke-width="1" /><path
           id="path110"
           d="m 610.875,563.575 c -6.944,-5.149 -12.94,-9.871 -13.325,-10.494 -1.237,-2.002 5.724,-10.465 9.69,-11.782 4.868,-1.616 8.371,-0.479 16.173,5.25 9.896,7.266 11.241,13.067 5.002,21.567 -1.972,2.686 -3.884,4.87 -4.25,4.852 -0.366,-0.018 -6.346,-4.244 -13.29,-9.393"
           stroke="#b6efd7"
           fill="#b6efd7"
           stroke-width="1" /><path
           id="path111"
           d="m 522.505,709.011 c -0.886,-1.713 -2.598,-3.512 -3.807,-3.999 -1.321,-0.532 -1.6,-0.921 -0.698,-0.974 2.879,-0.169 14.807,-17.923 13.482,-20.067 -0.33,-0.534 -0.236,-0.969 0.209,-0.967 0.445,0.002 1.586,3.131 2.536,6.954 0,0 1.727,6.95 1.727,6.95 0,0 -4.309,7.296 -4.309,7.296 -2.37,4.013 -5.033,7.436 -5.919,7.608 -0.975,0.189 -2.246,-0.915 -3.221,-2.801"
           stroke="#27ada5"
           fill="#27ada5"
           stroke-width="1" /><path
           id="path112"
           d="m 522.073,712.365 c -1.14,-1.449 -2.073,-2.968 -2.073,-3.375 0,-0.984 -13.359,-10.148 -18.842,-12.925 -3.771,-1.91 -4.26,-2.521 -3.724,-4.656 0.339,-1.351 2.067,-4.442 3.841,-6.866 1.774,-2.424 4.436,-6.35 5.915,-8.725 1.479,-2.375 3.842,-5.668 5.25,-7.318 1.408,-1.65 5.54,-7.5 9.183,-13 3.643,-5.5 7.87,-11.35 9.395,-13 1.525,-1.65 4.507,-5.648 6.627,-8.884 2.12,-3.236 4.84,-7.286 6.044,-9 2.781,-3.958 9.705,-11.612 8.7,-9.616 -0.684,1.358 -19.754,28.405 -44.067,62.5 -5.099,7.15 -9.282,13.508 -9.296,14.129 -0.014,0.621 1.436,1.679 3.224,2.351 5.885,2.213 7.782,3.357 11.956,7.21 2.27,2.095 4.517,3.81 4.994,3.81 0.477,0 1.809,1.597 2.961,3.549 1.215,2.059 2.741,3.423 3.635,3.25 2.371,-0.46 10.385,-14.653 9.625,-17.047 -0.446,-1.407 -0.234,-1.858 0.724,-1.542 2.494,0.822 1.973,4.352 -1.53,10.346 -4.566,7.813 -7.459,11.444 -9.118,11.444 -0.743,0 -2.284,-1.186 -3.424,-2.635"
           stroke="#179794"
           fill="#179794"
           stroke-width="1" /><path
           id="path113"
           d="m 530.551,680.75 c -1.403,-6.484 -2.234,-15.373 -1.52,-16.259 0.447,-0.555 1.491,-3.93 2.319,-7.5 2.078,-8.958 4.859,-14.962 8.535,-18.428 3.925,-3.701 3.944,-2.892 0.067,2.852 -5.057,7.493 -8.356,21.652 -7.748,33.244 0.407,7.76 -0.538,11.243 -1.653,6.091"
           stroke="#179794"
           fill="#179794"
           stroke-width="1" /><path
           id="path114"
           d="m 628.317,568.249 c 4.113,-5.603 4.768,-10.249 2.157,-15.299 -2.057,-3.977 -0.938,-3.759 1.537,0.3 1.09,1.787 1.983,4.801 1.985,6.696 0.004,3.771 -4.012,10.457 -7.356,12.247 -1.444,0.773 -0.974,-0.332 1.677,-3.944"
           stroke="#197373"
           fill="#197373"
           stroke-width="1" /><path
           id="path115"
           d="m 556,627.567 c 0,-0.532 13.339,-19.532 23.335,-33.238 0,0 5.959,-8.171 5.959,-8.171 0,0 4.282,3.171 4.282,3.171 6.374,4.72 7.196,6.757 4.37,10.84 -1.268,1.832 -4.16,5.356 -6.426,7.831 -2.266,2.475 -5.169,6.371 -6.452,8.658 -2.598,4.631 -5.913,6.411 -15.568,8.36 -3.3,0.666 -6.787,1.626 -7.75,2.132 -0.963,0.506 -1.75,0.694 -1.75,0.417"
           stroke="#6ad3c0"
           fill="#6ad3c0"
           stroke-width="1" /></g></g></g></svg>
